<svg width="1600" height="1200" viewBox="0 0 1600 1200" fill="none" xmlns="http://www.w3.org/2000/svg">
<rect width="1600" height="1200" fill="#00BFB8"/>
<g clip-path="url(#clip0_1304_71)">
<mask id="mask0_1304_71" style="mask-type:luminance" maskUnits="userSpaceOnUse" x="358" y="368" width="884" height="464">
<path d="M1242 368H358V831.311H1242V368Z" fill="white"/>
</mask>
<g mask="url(#mask0_1304_71)">
<path d="M471.27 368.625C410.816 374.542 362.68 424.301 358.33 485.233C353.067 559.175 411.401 621.062 483.843 621.062V620.989C519.699 620.879 554.422 605.297 578.362 577.881C588.084 566.746 584.831 549.399 571.892 542.343C562.572 537.272 550.839 539.036 543.895 547.047C528.727 564.541 506.651 574.5 483.843 574.61V574.684C447.878 574.684 417.468 550.649 407.563 517.758H576.644C596.564 517.758 611.037 501.477 608.99 481.522C602.083 413.754 541.811 361.679 471.27 368.625ZM407.563 471.342C417.468 438.414 447.914 414.416 483.843 414.416C519.772 414.416 550.218 438.45 560.123 471.342H407.563ZM703.874 480.787C713.561 480.787 722.04 474.613 725.549 465.536C730.41 453.04 738.268 442.052 748.283 433.489C762.172 421.619 780.155 414.416 799.818 414.416C819.483 414.416 837.429 421.582 851.354 433.489C861.369 442.052 869.227 453.04 874.088 465.536C877.597 474.613 886.077 480.787 895.762 480.787C912.064 480.787 923.102 464.286 917.254 449.034C910.09 430.402 898.614 413.864 884.103 400.671C861.698 380.348 832.129 368 799.745 368C767.362 368 737.793 380.348 715.498 400.634C700.987 413.828 689.547 430.329 682.347 448.998C676.462 464.286 687.537 480.75 703.838 480.75L703.874 480.787ZM895.762 508.202C886.077 508.202 877.597 514.376 874.088 523.491C869.264 536.022 861.369 547.011 851.354 555.573C837.465 567.48 819.446 574.684 799.782 574.684C780.118 574.684 762.135 567.48 748.21 555.573C738.195 547.011 730.337 535.986 725.476 523.491C721.967 514.376 713.488 508.202 703.801 508.202C687.501 508.202 676.462 524.667 682.31 539.955C689.474 558.66 700.914 575.198 715.461 588.428C737.793 608.714 767.362 621.099 799.745 621.099C832.129 621.099 861.734 608.714 884.066 588.428C898.577 575.235 910.053 558.66 917.217 539.955C923.065 524.667 912.027 508.202 895.726 508.202H895.762ZM1205.09 405.118C1182.31 382.186 1150.85 368 1116.16 368C1081.47 368 1050 382.186 1027.23 405.118C1004.46 428.013 990.318 459.655 990.318 494.531V597.837C990.318 610.663 1000.66 621.026 1013.38 621.026C1026.1 621.026 1036.44 610.626 1036.44 597.837V494.531C1036.44 472.444 1045.36 452.415 1059.8 437.899C1074.24 423.383 1094.16 414.416 1116.12 414.416C1138.09 414.416 1158.01 423.383 1172.45 437.899C1186.88 452.415 1195.8 472.444 1195.8 494.531V597.8C1195.8 610.626 1206.15 620.989 1218.86 620.989C1231.58 620.989 1241.92 610.589 1241.92 597.8V494.531C1241.92 459.655 1227.82 428.013 1205.01 405.118H1205.09Z" fill="white"/>
<path d="M378.212 727.712C381.575 721.39 386.216 716.466 392.101 713.011C397.986 709.52 404.564 707.793 411.801 707.793C419.038 707.793 425.106 709.336 430.369 712.424C435.632 715.511 439.543 719.406 442.101 724.073V709.153H455.771V791.033H442.101V775.781C439.433 780.559 435.449 784.528 430.15 787.652C424.85 790.775 418.673 792.356 411.655 792.356C404.638 792.356 397.876 790.555 392.028 786.99C386.18 783.425 381.575 778.39 378.212 771.886C374.849 765.418 373.168 758.03 373.168 749.762C373.168 741.493 374.849 734.07 378.212 727.712ZM438.373 733.775C435.888 729.182 432.562 725.691 428.359 723.228C424.155 720.803 419.514 719.553 414.47 719.553C409.426 719.553 404.82 720.766 400.654 723.154C396.487 725.544 393.161 729.035 390.712 733.629C388.227 738.222 386.984 743.588 386.984 749.762C386.984 755.936 388.227 761.486 390.712 766.116C393.197 770.747 396.487 774.275 400.654 776.737C404.82 779.163 409.426 780.412 414.47 780.412C419.514 780.412 424.155 779.199 428.359 776.737C432.562 774.312 435.925 770.747 438.373 766.116C440.859 761.486 442.101 756.083 442.101 749.909C442.101 743.735 440.859 738.369 438.373 733.775Z" fill="white"/>
<path d="M552.445 680.449V790.994H538.922V680.449H552.445Z" fill="white"/>
<path d="M636.293 693.129C634.502 691.328 633.625 689.16 633.625 686.55C633.625 683.941 634.502 681.773 636.293 679.972C638.084 678.171 640.24 677.289 642.836 677.289C645.43 677.289 647.404 678.171 649.159 679.972C650.877 681.773 651.754 683.941 651.754 686.55C651.754 689.16 650.877 691.328 649.159 693.129C647.441 694.929 645.321 695.811 642.836 695.811C640.35 695.811 638.084 694.929 636.293 693.129ZM649.378 709.115V790.995H635.855V709.115H649.378Z" fill="white"/>
<path d="M784.868 712.384C790.168 715.471 794.115 719.368 796.673 724.034V709.114H810.343V792.758C810.343 800.218 808.771 806.87 805.591 812.713C802.411 818.557 797.879 823.113 791.995 826.384C786.111 829.655 779.239 831.309 771.417 831.309C760.708 831.309 751.79 828.773 744.662 823.701C737.535 818.629 733.332 811.684 732.016 802.938H745.393C746.892 807.899 749.962 811.941 754.604 814.955C759.246 818.005 764.838 819.511 771.38 819.511C778.8 819.511 784.868 817.16 789.582 812.492C794.298 807.825 796.637 801.247 796.637 792.758V775.596C793.969 780.373 789.985 784.379 784.758 787.539C779.494 790.736 773.354 792.317 766.337 792.317C759.319 792.317 752.557 790.516 746.636 786.951C740.715 783.386 736.11 778.351 732.747 771.847C729.384 765.379 727.703 757.991 727.703 749.723C727.703 741.454 729.384 734.031 732.747 727.673C736.11 721.352 740.752 716.427 746.636 712.973C752.52 709.481 759.1 707.754 766.337 707.754C773.573 707.754 779.531 709.297 784.831 712.384H784.868ZM792.982 733.736C790.496 729.143 787.171 725.651 782.967 723.189C778.764 720.764 774.122 719.514 769.078 719.514C764.034 719.514 759.428 720.727 755.262 723.116C751.096 725.505 747.769 728.996 745.32 733.59C742.835 738.183 741.592 743.549 741.592 749.723C741.592 755.897 742.835 761.447 745.32 766.077C747.806 770.708 751.096 774.236 755.262 776.698C759.428 779.124 764.034 780.373 769.078 780.373C774.122 780.373 778.764 779.16 782.967 776.698C787.171 774.273 790.533 770.708 792.982 766.077C795.467 761.447 796.71 756.044 796.71 749.87C796.71 743.696 795.467 738.331 792.982 733.736Z" fill="white"/>
<path d="M957.275 716.646C963.415 722.673 966.485 731.347 966.485 742.702V790.955H953.109V744.65C953.109 736.491 951.062 730.244 947.005 725.907C942.948 721.571 937.391 719.403 930.374 719.403C923.356 719.403 917.581 721.645 913.378 726.128C909.176 730.611 907.056 737.116 907.056 745.715V790.992H893.531V709.112H907.056V720.763C909.723 716.573 913.378 713.339 917.984 711.061C922.589 708.782 927.669 707.605 933.225 707.605C943.131 707.605 951.171 710.62 957.311 716.646H957.275Z" fill="white"/>
<path d="M1123.21 755.125H1058.15C1058.66 763.174 1061.4 769.494 1066.41 774.015C1071.42 778.535 1077.49 780.814 1084.61 780.814C1090.46 780.814 1095.32 779.454 1099.23 776.698C1103.15 773.941 1105.89 770.304 1107.49 765.709H1122.04C1119.85 773.574 1115.5 779.969 1108.96 784.893C1102.41 789.818 1094.3 792.28 1084.58 792.28C1076.87 792.28 1069.96 790.553 1063.85 787.062C1057.75 783.57 1053 778.609 1049.53 772.214C1046.05 765.783 1044.34 758.36 1044.34 749.87C1044.34 741.381 1046.02 733.994 1049.38 727.599C1052.74 721.241 1057.49 716.317 1063.56 712.899C1069.67 709.445 1076.65 707.754 1084.58 707.754C1092.51 707.754 1099.13 709.445 1105.08 712.825C1111.04 716.207 1115.61 720.874 1118.83 726.791C1122.04 732.708 1123.65 739.396 1123.65 746.893C1123.65 749.503 1123.5 752.222 1123.21 755.125ZM1106.29 730.686C1104.02 726.938 1100.92 724.108 1097.01 722.16C1093.09 720.213 1088.74 719.257 1083.99 719.257C1077.16 719.257 1071.35 721.462 1066.52 725.835C1061.73 730.208 1058.96 736.309 1058.26 744.064H1109.65C1109.65 738.882 1108.52 734.435 1106.25 730.686H1106.29Z" fill="white"/>
<path d="M1225.85 711.502C1230.27 708.928 1235.64 707.605 1241.97 707.605V721.645H1238.38C1223.21 721.645 1215.65 729.913 1215.65 746.451V790.955H1202.12V709.076H1215.65V722.379C1218.02 717.712 1221.42 714.074 1225.81 711.465L1225.85 711.502Z" fill="white"/>
</g>
</g>
<defs>
<clipPath id="clip0_1304_71">
<rect width="884" height="463.311" fill="white" transform="translate(358 368)"/>
</clipPath>
</defs>
</svg>
