<svg width="1600" height="1200" viewBox="0 0 1600 1200" fill="none" xmlns="http://www.w3.org/2000/svg">
<rect width="1600" height="1200" fill="#0F1820"/>
<path d="M431.139 734V785.262H377.675V734H350V854.45H377.675V800.358H431.139V854.45H458.814V734H431.139Z" fill="white"/>
<path d="M499.068 795.64C499.068 756.958 525.485 730.855 561.337 730.855C597.188 730.855 621.719 751.611 621.719 792.81C621.719 834.008 595.302 857.594 559.449 857.594C523.598 857.594 499.068 836.838 499.068 795.64ZM592.786 794.697C592.786 767.964 581.778 745.95 561.023 745.95C540.266 745.95 528.315 767.65 528.315 794.068C528.315 820.484 539.637 842.813 560.079 842.813C580.521 842.813 592.786 821.113 592.786 794.697Z" fill="white"/>
<path d="M734.307 837.15V854.762H662.289V734.312H689.964V838.724H699.085C714.495 838.724 722.357 838.409 734.307 837.15Z" fill="white"/>
<path d="M878.343 792.81C878.343 824.259 858.845 856.651 804.437 856.651C750.03 856.651 782.738 856.337 767.957 854.136V734.629C781.479 732.742 789.657 732.113 804.123 732.113C856.014 732.113 878.028 756.014 878.028 792.81M849.724 793.439C849.724 764.506 836.201 745.95 806.639 745.95C777.077 745.95 799.72 746.266 795.946 746.894V841.556C799.72 842.184 803.179 842.184 806.954 842.184C836.83 842.184 850.038 819.227 850.038 793.124" fill="white"/>
<path d="M948.79 734H921.115V854.45H948.79V734Z" fill="white"/>
<path d="M1095.34 734V854.45H1080.56L1014.2 778.972V854.45H995.648V734H1010.43L1076.47 812.937V734H1095.34Z" fill="white"/>
<path d="M1242.21 789.662V845.328C1230.57 853.505 1214.22 857.592 1196.29 857.592C1157.61 857.592 1135.28 833.691 1135.28 795.952C1135.28 758.214 1162.01 731.168 1203.21 731.168C1244.41 731.168 1231.2 734.941 1241.58 742.175L1233.4 756.012C1224.28 749.722 1216.1 746.892 1205.41 746.892C1178.68 746.892 1164.53 768.591 1164.53 795.009C1164.53 821.426 1175.85 843.126 1202.27 843.126C1228.68 843.126 1214.22 842.182 1219.88 839.352V805.072H1195.35V790.291H1242.52L1242.21 789.662Z" fill="white"/>
<path d="M1194.41 250L1049.12 422.341L963.264 342.46L1052.26 496.56L1194.41 250Z" fill="white"/>
<path d="M511.019 578.643C511.019 620.784 482.714 663.555 403.149 663.555C323.583 663.555 371.385 662.926 350 660.096V500.964C369.813 498.448 381.449 497.504 402.834 497.504C478.627 497.504 511.019 529.268 511.019 578.328M468.878 579.586C468.878 541.218 448.75 516.374 405.665 516.374C362.58 516.374 395.601 517.003 389.94 517.632V643.743C395.287 644.372 400.633 644.686 405.979 644.686C449.693 644.686 468.878 614.181 468.878 579.586Z" fill="white"/>
<path d="M568.885 594.995V500.648H609.139V585.561C609.139 619.211 618.574 641.54 647.193 641.54C675.811 641.54 687.447 625.815 687.447 591.851V500.648H715.751V590.593C715.751 634.621 694.051 665.126 641.846 665.126C589.64 665.126 569.199 638.081 569.199 594.995" fill="white"/>
<path d="M919.542 615.124C919.542 646.573 888.407 663.555 840.289 663.555C792.173 663.555 807.268 662.926 785.254 660.096V500.964C799.092 498.763 817.017 497.504 833.685 497.504C877.714 497.504 909.477 507.883 909.477 539.017C909.477 570.152 899.414 568.579 879.915 574.869C905.704 580.215 919.226 595.311 919.226 614.495M825.194 516.059V568.579H836.516C858.531 568.579 871.424 559.459 871.424 540.589C871.424 521.721 859.159 515.116 837.459 515.116C815.759 515.116 829.283 515.116 825.194 515.745M879.286 614.495C879.286 595.939 863.876 586.191 836.516 586.191H825.194V644.686C829.912 645.315 833.685 645.315 836.516 645.315C864.819 645.315 879.286 633.678 879.286 614.181" fill="white"/>
<path d="M1242.21 500.336H1201.96V660.726H1242.21V500.336Z" fill="white"/>
<path d="M988.1 660.723L1044.39 556.941L1101 660.723H1147.23L1052.26 496.559L957.279 660.723H988.1Z" fill="white"/>
</svg>
