<?xml version="1.0" encoding="UTF-8" standalone="no"?>
<svg width="27" height="42" viewBox="0 0 600 950" version="1.1" xmlns="http://www.w3.org/2000/svg">
  <g transform="translate(-555.19,-182.8)">
    <path style="fill:#ffffff;fill-opacity:1" d="m 555.19,182.7993 0,850.0038 99.99801,0 0,-49.99816 -0.0572,0 0.0572,-0.0357 49.999,0 0,-49.99812 49.999,0 0,-49.99812 49.99901,0 0,99.99624 49.999,0 0.73359,0 -0.73359,100.03196 49.999,0 0,49.9981 99.99798,0 0,-49.9981 49.999,0 0,-99.99626 -49.999,0 -0.7336,-0.0357 0.7336,-99.99624 -49.99897,0 0,-49.99812 200.00787,0 0,-49.99812 0,-49.99812 -49.999,0 0,0.069 -0.012,-0.069 0,-49.99812 -49.999,0 0,-49.99811 -49.999,0 0,-49.99812 -49.99897,0 0,-49.99812 -49.99901,0 0,-49.99812 -49.999,0 0,-49.99812 -49.999,0 0,-49.99812 -49.99901,0 0,-49.99812 -49.999,0 0,-49.99812 -49.999,0 0,-49.99812 -49.99901,0 0,-49.99812 -49.999,0 z" />
    <path style="fill:#000000;fill-opacity:1" d="m 555.2,232.8 0,700 50,0 0,-50 50,0 0,-50 50,0 0,-50 50,0 0,50 50,0 0,100 50,0 0,100 100,0 0,-100 -50,0 0,-100 -50,0 0,-100 200,0 0,-50 -50,0 0,-50 -50,0 0,-50 -50,0 0,-50 -50,0 0,-50 -50,0 0,-50 -50,0 0,-50 -50,0 0,-50 -50,0 0,-50 -50,0 0,-50 z" />
  </g>
</svg>
