<svg width="61" height="60" viewBox="0 0 61 60" fill="none" xmlns="http://www.w3.org/2000/svg">
<path opacity="0.2" d="M55.0417 29.9535C55.056 32.6746 54.3287 35.3482 52.9378 37.687C51.547 40.0259 49.5452 41.9416 47.1475 43.2284C44.7498 44.5152 42.0469 45.1245 39.329 44.9907C36.6111 44.8569 33.9811 43.9851 31.7214 42.4691C31.4081 42.2634 31.0415 42.1538 30.6667 42.1538C30.2919 42.1538 29.9253 42.2634 29.612 42.4691C27.8917 43.6408 25.9465 44.4416 23.8999 44.8207C21.8534 45.1998 19.7503 45.1488 17.7246 44.671C15.6988 44.1932 13.7946 43.299 12.1332 42.0454C10.4717 40.7917 9.08933 39.206 8.07397 37.3892C7.0586 35.5723 6.43246 33.5639 6.23537 31.4919C6.03828 29.4199 6.27456 27.3296 6.92918 25.3538C7.5838 23.3781 8.64243 21.5602 10.0377 20.0158C11.4331 18.4714 13.1345 17.2343 15.0339 16.3832C15.4509 16.1735 15.7823 15.8256 15.9714 15.3988C17.1864 12.5042 19.2293 10.0328 21.8436 8.29493C24.458 6.55701 27.5274 5.62988 30.6667 5.62988C33.806 5.62988 36.8754 6.55701 39.4897 8.29493C42.1041 10.0328 44.1469 12.5042 45.362 15.3988C45.5511 15.8256 45.8824 16.1735 46.2995 16.3832C48.9005 17.574 51.1061 19.4848 52.6554 21.8897C54.2046 24.2945 55.0327 27.0928 55.0417 29.9535Z" fill="#9BC896"/>
<path d="M47.0967 14.6716C45.7404 11.4331 43.4572 8.66766 40.534 6.72276C37.6109 4.77787 34.1781 3.74023 30.667 3.74023C27.156 3.74023 23.7232 4.77787 20.8001 6.72276C17.8769 8.66766 15.5937 11.4331 14.2374 14.6716C11.3189 16.024 8.84563 18.1792 7.10665 20.8852C5.36767 23.5912 4.43479 26.7363 4.41705 29.9528C4.39361 39.0466 11.7764 46.6403 20.8467 46.8747C23.5993 46.9495 26.3279 46.3458 28.792 45.1169V54.3747C28.792 54.872 28.9896 55.3489 29.3412 55.7005C29.6929 56.0521 30.1698 56.2497 30.667 56.2497C31.1643 56.2497 31.6412 56.0521 31.9929 55.7005C32.3445 55.3489 32.542 54.872 32.542 54.3747V45.1169C34.8731 46.2732 37.44 46.8748 40.042 46.8747H40.4874C49.5577 46.6403 56.9405 39.0466 56.917 29.9528C56.8993 26.7363 55.9664 23.5912 54.2274 20.8852C52.4885 18.1792 50.0152 16.024 47.0967 14.6716ZM40.3936 43.1247C37.6806 43.195 35.0121 42.4255 32.753 40.9216L32.542 40.7809V31.1481L42.7608 26.0622C43.2084 25.8384 43.5487 25.446 43.7069 24.9713C43.8651 24.4966 43.8283 23.9785 43.6045 23.5309C43.3808 23.0834 42.9884 22.7431 42.5137 22.5848C42.039 22.4266 41.5209 22.4634 41.0733 22.6872L32.542 26.9763V20.6247C32.542 20.1274 32.3445 19.6505 31.9929 19.2989C31.6412 18.9472 31.1643 18.7497 30.667 18.7497C30.1698 18.7497 29.6929 18.9472 29.3412 19.2989C28.9896 19.6505 28.792 20.1274 28.792 20.6247V32.6013L20.2608 28.3122C20.0392 28.2014 19.7979 28.1353 19.5508 28.1178C19.3037 28.1002 19.0555 28.1315 18.8204 28.2098C18.5854 28.2882 18.3681 28.4121 18.1809 28.5744C17.9937 28.7367 17.8404 28.9343 17.7295 29.1559C17.6187 29.3775 17.5527 29.6188 17.5351 29.8659C17.5175 30.1131 17.5488 30.3613 17.6272 30.5963C17.7055 30.8314 17.8294 31.0487 17.9917 31.2358C18.1541 31.423 18.3517 31.5764 18.5733 31.6872L28.792 36.7731V40.7809L28.5811 40.9216C26.322 42.4255 23.6535 43.195 20.9405 43.1247C13.8858 42.9372 8.14361 37.0309 8.16705 29.9528C8.18345 27.4516 8.9104 25.0066 10.2632 22.9028C11.6159 20.7989 13.5388 19.1229 15.8077 18.07C16.6563 17.6744 17.3313 16.9827 17.7061 16.1247C18.7799 13.5739 20.5824 11.3967 22.8879 9.86577C25.1935 8.33482 27.8995 7.51819 30.667 7.51819C33.4346 7.51819 36.1406 8.33482 38.4461 9.86577C40.7517 11.3967 42.5542 13.5739 43.628 16.1247C44.0028 16.9827 44.6778 17.6744 45.5264 18.07C47.7953 19.1229 49.7181 20.7989 51.0709 22.9028C52.4237 25.0066 53.1506 27.4516 53.167 29.9528C53.1905 37.0309 47.4483 42.9372 40.3936 43.1247Z" fill="#9BC896"/>
</svg>
