<svg width="61" height="60" viewBox="0 0 61 60" fill="none" xmlns="http://www.w3.org/2000/svg">
<path opacity="0.2" d="M52.833 13.125V41.25C52.833 41.7473 52.6355 42.2242 52.2838 42.5758C51.9322 42.9275 51.4553 43.125 50.958 43.125H9.70801C9.21073 43.125 8.73381 42.9275 8.38218 42.5758C8.03055 42.2242 7.83301 41.7473 7.83301 41.25V13.125C7.83301 12.6277 8.03055 12.1508 8.38218 11.7992C8.73381 11.4475 9.21073 11.25 9.70801 11.25H50.958C51.4553 11.25 51.9322 11.4475 52.2838 11.7992C52.6355 12.1508 52.833 12.6277 52.833 13.125Z" fill="#9BC896"/>
<path d="M50.958 9.375H32.208V5.625C32.208 5.12772 32.0105 4.65081 31.6588 4.29917C31.3072 3.94754 30.8303 3.75 30.333 3.75C29.8357 3.75 29.3588 3.94754 29.0072 4.29917C28.6556 4.65081 28.458 5.12772 28.458 5.625V9.375H9.70801C8.71345 9.375 7.75962 9.77009 7.05636 10.4733C6.3531 11.1766 5.95801 12.1304 5.95801 13.125V41.25C5.95801 42.2446 6.3531 43.1984 7.05636 43.9016C7.75962 44.6049 8.71345 45 9.70801 45H18.9424L13.8799 51.3281C13.6597 51.6032 13.5214 51.9347 13.4809 52.2848C13.4405 52.6348 13.4995 52.9891 13.6511 53.3072C13.8028 53.6252 14.0411 53.8941 14.3385 54.0829C14.636 54.2718 14.9807 54.373 15.333 54.375C15.6129 54.3769 15.8894 54.3144 16.1414 54.1925C16.3933 54.0706 16.6139 53.8925 16.7861 53.6719L23.7236 45H36.9424L43.8799 53.6719C44.0521 53.8925 44.2727 54.0706 44.5246 54.1925C44.7766 54.3144 45.0531 54.3769 45.333 54.375C45.6854 54.373 46.03 54.2718 46.3275 54.0829C46.625 53.8941 46.8632 53.6252 47.0149 53.3072C47.1665 52.9891 47.2255 52.6348 47.1851 52.2848C47.1446 51.9347 47.0064 51.6032 46.7861 51.3281L41.7236 45H50.958C51.9526 45 52.9064 44.6049 53.6097 43.9016C54.3129 43.1984 54.708 42.2446 54.708 41.25V13.125C54.708 12.1304 54.3129 11.1766 53.6097 10.4733C52.9064 9.77009 51.9526 9.375 50.958 9.375ZM50.958 41.25H9.70801V13.125H50.958V41.25ZM24.708 28.125V33.75C24.708 34.2473 24.5105 34.7242 24.1588 35.0758C23.8072 35.4275 23.3303 35.625 22.833 35.625C22.3357 35.625 21.8588 35.4275 21.5072 35.0758C21.1556 34.7242 20.958 34.2473 20.958 33.75V28.125C20.958 27.6277 21.1556 27.1508 21.5072 26.7992C21.8588 26.4475 22.3357 26.25 22.833 26.25C23.3303 26.25 23.8072 26.4475 24.1588 26.7992C24.5105 27.1508 24.708 27.6277 24.708 28.125ZM32.208 24.375V33.75C32.208 34.2473 32.0105 34.7242 31.6588 35.0758C31.3072 35.4275 30.8303 35.625 30.333 35.625C29.8357 35.625 29.3588 35.4275 29.0072 35.0758C28.6556 34.7242 28.458 34.2473 28.458 33.75V24.375C28.458 23.8777 28.6556 23.4008 29.0072 23.0492C29.3588 22.6975 29.8357 22.5 30.333 22.5C30.8303 22.5 31.3072 22.6975 31.6588 23.0492C32.0105 23.4008 32.208 23.8777 32.208 24.375ZM39.708 20.625V33.75C39.708 34.2473 39.5105 34.7242 39.1588 35.0758C38.8072 35.4275 38.3303 35.625 37.833 35.625C37.3357 35.625 36.8588 35.4275 36.5072 35.0758C36.1556 34.7242 35.958 34.2473 35.958 33.75V20.625C35.958 20.1277 36.1556 19.6508 36.5072 19.2992C36.8588 18.9475 37.3357 18.75 37.833 18.75C38.3303 18.75 38.8072 18.9475 39.1588 19.2992C39.5105 19.6508 39.708 20.1277 39.708 20.625Z" fill="#9BC896"/>
</svg>
