<svg width="1600" height="1200" viewBox="0 0 1600 1200" fill="none" xmlns="http://www.w3.org/2000/svg">
<rect width="1600" height="1200" fill="white"/>
<g clip-path="url(#clip0_1200_73)">
<mask id="mask0_1200_73" style="mask-type:luminance" maskUnits="userSpaceOnUse" x="450" y="124" width="700" height="952">
<path d="M450 124H1150V1075.62H450V124Z" fill="white"/>
</mask>
<g mask="url(#mask0_1200_73)">
<path d="M1141.36 338.729C1134.57 314.504 1122.66 292.017 1106.43 272.788C1090.21 253.559 1070.05 238.034 1047.31 227.263C1024.83 216.771 1000.31 211.357 975.506 211.408C963.896 211.421 952.315 212.564 940.927 214.821C908.51 162.449 855.692 128.849 798.202 124.497C793.881 124.171 789.481 124 785.139 124C715.034 124 648.796 167.854 614.585 236.326C613.428 236.301 612.276 236.288 611.13 236.288C604.982 236.287 598.84 236.659 592.737 237.404C503.011 248.427 439.62 335.568 451.412 431.686C460.309 504.158 509.084 562.783 574.435 581.26C574.429 582.064 574.503 582.868 574.654 583.658C576.187 591.85 584.459 595.438 592.342 597.868C603.888 601.435 604.78 603.256 605.437 604.586C607.071 608.231 609.612 611.397 612.817 613.782C615.201 615.607 618.114 616.607 621.116 616.628C629.02 616.628 633.442 610.22 636.988 605.115C638.697 602.648 642.254 597.516 643.984 597.516C644.362 597.533 644.733 597.612 645.085 597.751C647.221 598.498 649.309 599.155 651.338 599.716L718.132 702.157L693.747 712.266L693.213 712.485L692.679 712.762C681.701 718.936 672.067 727.242 664.344 737.191C656.621 747.14 650.965 758.532 647.707 770.698L548.561 807.984C544.801 809.416 541.559 811.946 539.257 815.245C536.954 818.544 535.696 822.459 535.647 826.482L534.515 973.914C534.512 975.689 534.746 977.456 535.209 979.169C535.353 979.724 535.532 980.27 535.743 980.803C536.151 981.958 536.666 983.072 537.281 984.13C537.613 984.664 537.96 985.198 538.349 985.7C539.058 986.676 539.853 987.586 540.726 988.418C541.057 988.733 541.356 989.016 541.661 989.278C542.045 989.639 542.452 989.976 542.878 990.287C543.467 990.692 544.086 991.049 544.731 991.355C545.335 991.747 545.971 992.087 546.633 992.37L738.356 1074.03C742.817 1075.93 747.816 1076.14 752.418 1074.61L1005.31 991.249C1006.02 991.012 1006.71 990.712 1007.37 990.351C1008.18 990.039 1008.95 989.651 1009.68 989.193L1010.5 988.659L1010.95 988.247C1011.21 988.039 1011.49 987.831 1011.73 987.601C1012.64 986.86 1013.48 986.042 1014.25 985.155C1014.66 984.653 1015.06 984.129 1015.42 983.585C1016.08 982.628 1016.66 981.615 1017.14 980.557C1017.43 979.924 1017.69 979.275 1017.91 978.614C1018.22 977.678 1018.46 976.719 1018.63 975.746C1018.79 975.105 1018.89 974.451 1018.94 973.791L1019.03 972.649L1019 972.424V828.319C1019.01 824.075 1017.65 819.941 1015.13 816.528L934.021 705.986C932.157 703.463 929.726 701.413 926.925 700C924.124 698.587 921.03 697.852 917.893 697.853C917.18 697.854 916.467 697.892 915.757 697.965L880.787 702.077C876.609 690.859 869.031 681.226 859.111 674.525C849.192 667.823 837.427 664.386 825.46 664.695C822.754 664.701 820.05 664.843 817.358 665.123L848.974 622.844C850.79 625.418 853.235 627.483 856.076 628.843C858.918 630.202 862.06 630.81 865.204 630.609C873.264 630.234 880.919 626.97 886.769 621.413C890.721 618.268 892.681 616.895 894.913 616.895C895.353 616.899 895.793 616.938 896.227 617.013C897.69 617.235 899.089 617.769 900.329 618.579C901.568 619.389 902.619 620.455 903.41 621.707C905.301 624.411 907.804 626.632 910.715 628.187C913.626 629.742 916.863 630.588 920.163 630.657C921.084 630.653 922.004 630.598 922.919 630.491C926.784 629.801 930.448 628.264 933.647 625.988C936.847 623.713 939.503 620.757 941.423 617.333C942.687 617.362 943.91 617.376 945.092 617.376C970.547 617.267 995.707 611.911 1019 601.644C1067.67 580.023 1106.72 541.291 1128.73 492.794C1151.67 444.722 1156.16 389.896 1141.36 338.729Z" fill="#FEFEFE"/>
</g>
<path d="M732.973 562.597C729.535 561.741 726.325 560.149 723.564 557.929C720.803 555.71 718.558 552.917 716.983 549.743C715.114 545.727 716.001 541.947 714.068 538.785C709.438 542.975 704.555 546.876 699.445 550.464C707.042 560.174 716.004 568.734 726.052 575.878C720.871 581.249 716.869 587.642 714.303 594.649C715.087 592.905 716.393 591.448 718.041 590.478C722.817 587.316 728.563 585.956 734.249 586.644L733.427 571.072L732.973 562.597Z" fill="#EB008B"/>
<path d="M846.148 584.608C842.143 582.264 837.352 580.181 832.797 577.895C830.199 576.852 828.062 574.91 826.776 572.423C825.49 569.936 825.14 567.07 825.79 564.347H825.763C826.844 562.049 828.352 559.978 830.207 558.243C823.62 551.445 817.634 544.089 812.316 536.258C801.473 538.482 790.434 539.604 779.365 539.606C775.203 539.606 771.025 539.448 766.831 539.131C764.567 538.965 762.334 538.693 760.102 538.437C755.888 541.71 767.28 548.38 757.005 556.786C754.49 558.862 751.655 560.516 748.609 561.683L749.186 572.518L750.174 591.043C775.739 599.245 764.866 580.261 782.356 581.735C803.456 583.519 791.04 597.376 804.476 604.42C807.226 605.834 809.489 608.038 810.976 610.748C809.538 605.835 807.691 601.051 805.454 596.447C819.592 594.838 833.353 590.834 846.148 584.608Z" fill="#EB008B"/>
<path d="M713.622 596.785C713.649 596.662 713.649 596.539 713.681 596.422C713.612 596.603 713.574 596.732 713.574 596.732L713.622 596.785Z" fill="#EB008B"/>
<path d="M688.585 523.413V523.387C688.84 522.487 689.268 521.645 689.845 520.909C690.91 518.956 692.095 517.071 693.391 515.264C688.086 512.025 682.957 508.504 678.027 504.717C663.69 512.072 648.154 516.803 632.152 518.687C563.703 527.093 507.077 486.331 497.993 412.247C489.235 340.912 528.984 282.608 593.059 270.859C523.467 281.599 474.917 351.032 484.316 427.637C492.872 497.369 546.608 549.725 609.038 553.735C600.882 558.97 593.887 565.825 588.488 573.873C587.273 575.771 586.267 577.794 585.487 579.907C588.386 577.596 591.804 576.024 595.447 575.326C645.984 568.917 620.456 565.179 635.185 547.818C649.914 530.457 665.172 543.696 665.172 543.696C665.209 543.73 665.242 543.768 665.274 543.808C674.322 539.836 682.862 534.795 690.71 528.791C689.86 528.206 689.203 527.381 688.823 526.422C688.443 525.462 688.356 524.412 688.574 523.403" fill="#F05A28"/>
<path d="M614.66 519.782C586.065 520.372 558.286 510.242 536.784 491.383C514.608 470.641 500.807 442.486 497.996 412.252C495.815 395.407 496.537 378.313 500.133 361.712C503.436 346.533 509.571 332.112 518.216 319.204C526.587 306.742 537.376 296.088 549.943 287.874C563.035 279.38 577.697 273.596 593.063 270.865C595.781 270.363 598.243 269.978 600.577 269.69C604.432 269.22 608.406 268.916 612.465 268.793C606.531 286.451 602.818 304.779 601.41 323.354C596 394.822 625.362 464.308 678.035 504.723C663.702 512.079 648.167 516.808 632.166 518.688C626.358 519.407 620.512 519.773 614.66 519.782ZM524.117 390.24C522.101 390.24 520.131 390.837 518.456 391.957C516.78 393.077 515.474 394.668 514.703 396.53C513.932 398.392 513.73 400.44 514.123 402.417C514.516 404.393 515.487 406.209 516.912 407.634C518.337 409.059 520.152 410.029 522.129 410.422C524.105 410.815 526.154 410.614 528.016 409.842C529.878 409.071 531.47 407.765 532.589 406.09C533.709 404.414 534.306 402.444 534.306 400.429C534.302 397.728 533.227 395.139 531.317 393.229C529.407 391.319 526.818 390.244 524.117 390.24ZM567.401 295.825C565.391 295.829 563.411 296.316 561.628 297.246C548.982 304.66 538.11 314.751 529.775 326.809C521.439 338.868 515.84 352.603 513.372 367.053C512.814 370.313 513.571 373.662 515.478 376.364C517.385 379.067 520.286 380.904 523.545 381.471C524.25 381.598 524.965 381.663 525.682 381.663C528.623 381.664 531.47 380.623 533.718 378.726C535.966 376.829 537.47 374.198 537.965 371.298C539.768 360.619 543.849 350.453 549.931 341.492C556.013 332.531 563.953 324.984 573.212 319.365C575.664 318.054 577.608 315.963 578.737 313.423C579.866 310.883 580.115 308.038 579.444 305.341C578.773 302.643 577.221 300.246 575.034 298.53C572.847 296.814 570.149 295.877 567.369 295.868L567.401 295.825Z" fill="#F6931D"/>
<path d="M795.726 157.554C792.166 157.28 788.606 157.145 785.045 157.149C702.342 157.149 631.207 230.149 624.013 325.066C618.326 400.293 654.433 467.922 710.369 498.959C703.747 503.297 697.989 508.827 693.386 515.268C692.09 517.076 690.905 518.963 689.84 520.918C693.013 516.597 701.589 512.464 714.999 511.118C731.245 509.516 700.452 508.325 719.272 494.088C720.591 493.09 722.145 492.032 723.998 490.884C726.278 489.329 728.895 488.339 731.634 487.995C734.372 487.65 737.153 487.961 739.747 488.903C744.911 491.024 749.19 494.852 751.87 499.749C757.333 509.714 762.952 507.989 774.14 510.002C778.282 510.558 782.266 511.955 785.848 514.108C789.43 516.261 792.534 519.123 794.968 522.52C794.091 520.373 793.018 518.312 791.764 516.362C794.612 516.106 797.43 515.766 800.218 515.342C795.739 506.231 792.021 496.764 789.104 487.039C787.345 481.158 785.87 475.209 784.677 469.192C780.404 469.192 776.057 469.059 771.667 468.733C691.111 462.608 642.118 394.253 644.478 312.116C647.074 221.145 715.998 152.754 796.581 158.852C820.527 161.018 843.582 169 863.74 182.105C883.898 195.21 900.549 213.041 912.245 234.047C912.672 233.882 913.094 233.69 913.527 233.513C887.588 190.696 845.286 161.303 795.726 157.554Z" fill="#00A69D"/>
<path d="M784.711 469.2H784.487C779.995 469.2 775.808 469.05 771.696 468.741C752.741 467.45 734.271 462.173 717.496 453.254C701.752 444.752 687.953 433.063 676.977 418.933C665.737 404.423 657.276 387.96 652.021 370.374C646.355 351.493 643.808 331.814 644.48 312.113C645.137 271.543 660.573 232.607 687.893 202.607C700.393 188.819 715.621 177.777 732.612 170.181C749.602 162.585 767.985 158.601 786.596 158.48C789.902 158.48 793.261 158.609 796.583 158.86C820.456 160.782 843.455 168.711 863.441 181.908C883.604 195.181 900.33 213.047 912.247 234.039C910.111 234.861 907.879 235.748 905.625 236.709C859.298 257.319 822.149 294.219 801.229 340.405C782.108 380.469 776.319 425.603 784.711 469.195V469.2ZM769.902 175.067C769.581 175.067 769.256 175.067 768.935 175.105C766.009 175.329 697.02 181.513 673.234 258.316C672.655 259.904 672.405 261.594 672.499 263.282C672.593 264.97 673.029 266.622 673.78 268.136C674.531 269.651 675.582 270.997 676.87 272.094C678.157 273.19 679.653 274.013 681.268 274.514C682.883 275.015 684.583 275.182 686.265 275.006C687.947 274.83 689.575 274.315 691.051 273.49C692.528 272.666 693.821 271.551 694.854 270.212C695.886 268.873 696.636 267.338 697.058 265.701C715.696 205.528 768.62 200.187 770.89 200.017C774.111 199.767 777.11 198.278 779.256 195.863C781.402 193.448 782.528 190.294 782.396 187.066C782.265 183.838 780.887 180.787 778.551 178.554C776.216 176.321 773.106 175.081 769.875 175.094L769.902 175.067ZM802.618 176.135C800.603 176.136 798.634 176.735 796.959 177.855C795.284 178.975 793.979 180.566 793.208 182.428C792.438 184.289 792.236 186.337 792.63 188.313C793.023 190.289 793.993 192.104 795.418 193.529C796.843 194.954 798.658 195.924 800.634 196.317C802.61 196.711 804.658 196.509 806.52 195.739C808.382 194.968 809.973 193.663 811.093 191.988C812.213 190.314 812.812 188.344 812.813 186.33C812.816 184.987 812.553 183.657 812.041 182.415C811.529 181.174 810.776 180.046 809.827 179.096C808.878 178.146 807.751 177.392 806.51 176.879C805.269 176.365 803.939 176.102 802.596 176.103L802.618 176.135Z" fill="#61C7CF"/>
<path d="M1109.62 348.234C1104.14 328.505 1094.5 310.18 1081.33 294.496C1068.17 278.811 1051.8 266.131 1033.32 257.312C1015.17 248.867 995.383 244.508 975.361 244.543C972.622 244.543 969.871 244.639 967.121 244.805C988.234 244.045 1009.23 248.296 1028.38 257.21C1099.3 290.218 1128.27 378.272 1093.06 453.879C1057.85 529.486 971.831 564.058 900.92 531.061C830.009 498.064 801.042 410.02 836.236 334.392C847.597 309.794 865.094 288.532 887.046 272.649C858.648 291.995 836.075 318.731 821.763 349.969C802.263 390.687 798.382 437.144 810.858 480.532C818.279 506.225 832.471 529.45 851.948 547.776C843.829 549.047 836.264 552.684 830.201 558.232C828.349 559.971 826.841 562.043 825.758 564.341H825.785C827.787 559.647 835.323 556.085 852.594 557.89C882.565 561.019 858.725 551.519 869.566 546.254C872.515 545.022 875.637 544.253 878.821 543.974C882.21 543.139 885.765 543.27 889.084 544.351C892.403 545.433 895.352 547.422 897.598 550.093C900.147 553.805 901.625 558.147 901.871 562.643C902.268 566.603 903.694 570.39 906.007 573.628C908.32 576.866 911.44 579.444 915.056 581.104C929.134 587.624 934.282 595.277 934.843 602.08C935.223 595.858 934.5 589.617 932.707 583.646C957.719 585.689 982.845 581.429 1005.79 571.257C1047.03 552.854 1080.08 519.955 1098.67 478.802C1118.19 438.088 1122.08 391.628 1109.62 348.234Z" fill="#1C75BB"/>
<path d="M957.544 543.588C938.263 543.597 919.207 539.445 901.678 531.416C884.149 523.387 868.559 511.67 855.973 497.065C843.8 482.906 834.56 466.472 828.79 448.714C822.837 430.566 820.371 411.456 821.521 392.391C822.951 368.84 829.565 345.895 840.892 325.196C852.219 304.497 867.978 286.555 887.044 272.653C910.374 255.618 938.252 245.921 967.119 244.799C968.657 244.745 970.259 244.719 971.808 244.719C991.086 244.704 1010.14 248.853 1027.67 256.88C1045.19 264.908 1060.78 276.626 1073.36 291.232C1085.52 305.389 1094.75 321.82 1100.52 339.571C1106.47 357.723 1108.94 376.837 1107.79 395.905C1106.29 420.692 1099.04 444.789 1086.62 466.292C1074.2 487.795 1056.95 506.113 1036.23 519.798C1012.86 535.184 985.522 543.449 957.544 543.588ZM863.225 342.076C861.21 342.076 859.24 342.674 857.564 343.793C855.888 344.913 854.582 346.504 853.811 348.366C853.04 350.228 852.838 352.276 853.231 354.253C853.624 356.229 854.595 358.045 856.02 359.47C857.445 360.895 859.261 361.865 861.237 362.258C863.214 362.652 865.263 362.45 867.124 361.679C868.986 360.907 870.578 359.601 871.697 357.926C872.817 356.25 873.415 354.28 873.415 352.265C873.412 349.564 872.337 346.974 870.427 345.063C868.517 343.153 865.927 342.079 863.225 342.076ZM966.777 260.318C966.5 260.318 966.243 260.318 965.944 260.344C946.923 262.727 928.585 268.954 912.047 278.648C895.509 288.342 881.117 301.299 869.746 316.731C867.743 319.366 866.867 322.688 867.311 325.968C867.754 329.248 869.481 332.218 872.112 334.226C873.414 335.224 874.902 335.955 876.488 336.377C878.074 336.799 879.727 336.903 881.354 336.684C882.98 336.466 884.548 335.928 885.966 335.102C887.384 334.276 888.625 333.178 889.618 331.871C898.807 319.263 910.444 308.637 923.834 300.629C937.224 292.62 952.091 287.394 967.546 285.262C970.776 285.05 973.798 283.593 975.974 281.197C978.151 278.801 979.311 275.653 979.212 272.418C979.112 269.183 977.76 266.113 975.44 263.855C973.12 261.598 970.014 260.329 966.777 260.318Z" fill="#27A9E0"/>
<path d="M681.445 273.932C683.01 274.418 684.657 274.591 686.289 274.441C687.922 274.29 689.509 273.819 690.959 273.055C692.409 272.291 693.695 271.248 694.742 269.986C695.789 268.725 696.577 267.269 697.06 265.702C715.688 205.556 768.548 200.199 770.914 199.991C774.214 199.728 777.275 198.166 779.423 195.646C781.57 193.127 782.629 189.858 782.367 186.558C782.104 183.258 780.541 180.197 778.022 178.05C775.502 175.902 772.233 174.843 768.933 175.106C765.985 175.33 696.985 181.546 673.21 258.317C672.232 261.479 672.55 264.901 674.094 267.829C675.638 270.757 678.282 272.952 681.445 273.932Z" fill="#FEFEFE"/>
<path d="M523.544 381.456C525.159 381.738 526.814 381.698 528.414 381.339C530.014 380.98 531.527 380.309 532.867 379.363C534.206 378.418 535.346 377.218 536.221 375.831C537.096 374.444 537.688 372.899 537.963 371.282C539.767 360.603 543.848 350.437 549.93 341.475C556.012 332.513 563.952 324.965 573.211 319.344C576.031 317.747 578.119 315.116 579.034 312.008C579.949 308.899 579.619 305.556 578.113 302.687C576.608 299.817 574.046 297.646 570.968 296.631C567.89 295.617 564.539 295.839 561.622 297.251C548.986 304.674 538.122 314.763 529.788 326.816C521.453 338.869 515.849 352.595 513.365 367.037C512.803 370.298 513.559 373.649 515.466 376.353C517.374 379.056 520.278 380.892 523.539 381.456" fill="#FEFEFE"/>
<path d="M802.596 196.491C804.611 196.491 806.581 195.894 808.257 194.774C809.933 193.655 811.239 192.063 812.01 190.202C812.781 188.34 812.983 186.291 812.59 184.315C812.197 182.338 811.226 180.523 809.801 179.098C808.376 177.673 806.56 176.702 804.584 176.309C802.607 175.916 800.558 176.118 798.696 176.889C796.835 177.66 795.243 178.966 794.124 180.642C793.004 182.317 792.406 184.287 792.406 186.302C792.408 189.004 793.482 191.595 795.392 193.506C797.303 195.416 799.894 196.49 802.596 196.491Z" fill="#FEFEFE"/>
<path d="M524.112 390.242C522.096 390.242 520.126 390.84 518.45 391.959C516.775 393.079 515.469 394.67 514.698 396.532C513.926 398.394 513.725 400.443 514.118 402.419C514.511 404.396 515.481 406.211 516.906 407.636C518.331 409.061 520.147 410.031 522.124 410.425C524.1 410.818 526.149 410.616 528.011 409.845C529.873 409.074 531.464 407.768 532.584 406.092C533.704 404.416 534.301 402.447 534.301 400.431C534.301 399.093 534.038 397.768 533.526 396.532C533.013 395.296 532.263 394.173 531.317 393.227C530.371 392.28 529.247 391.53 528.011 391.018C526.775 390.506 525.45 390.242 524.112 390.242Z" fill="#FEFEFE"/>
<path d="M863.225 362.46C865.24 362.46 867.21 361.863 868.886 360.743C870.562 359.623 871.868 358.032 872.639 356.17C873.41 354.309 873.612 352.26 873.219 350.283C872.826 348.307 871.855 346.491 870.43 345.066C869.005 343.641 867.189 342.671 865.213 342.278C863.236 341.885 861.187 342.086 859.325 342.858C857.463 343.629 855.872 344.935 854.752 346.61C853.633 348.286 853.035 350.256 853.035 352.271C853.035 354.973 854.109 357.565 856.02 359.476C857.931 361.387 860.522 362.46 863.225 362.46Z" fill="#FEFEFE"/>
<path d="M869.747 316.726C868.752 318.032 868.024 319.52 867.604 321.106C867.184 322.693 867.08 324.347 867.299 325.973C867.519 327.6 868.056 329.167 868.881 330.586C869.706 332.005 870.802 333.247 872.108 334.242C873.413 335.237 874.901 335.966 876.488 336.386C878.074 336.806 879.728 336.909 881.355 336.69C882.981 336.471 884.549 335.933 885.968 335.108C887.387 334.283 888.629 333.187 889.624 331.882C898.811 319.271 910.446 308.643 923.835 300.632C937.224 292.622 952.091 287.394 967.548 285.262C970.851 285.05 973.935 283.533 976.121 281.047C978.307 278.561 979.416 275.309 979.203 272.005C978.991 268.701 977.475 265.618 974.988 263.432C972.502 261.246 969.249 260.138 965.945 260.35C946.922 262.721 928.581 268.943 912.042 278.635C895.503 288.328 881.112 301.289 869.747 316.726Z" fill="#FEFEFE"/>
<path d="M564 960.59L564.977 833.162L772.845 754.992C770.202 772.985 764.734 790.447 756.642 806.733V779.071L740.509 784.945V834.892C733.549 845.263 725.887 855.144 717.577 864.466V793.287L701.443 799.161V881.299C699.563 883.125 697.592 884.994 695.568 886.852V801.297L679.429 807.171V898.489L684.471 896.657C665.64 912.482 645.496 926.674 624.257 939.08L564 960.59ZM607.039 889.218L591.375 894.905V914.184C591.375 922.642 594.222 926.931 599.845 926.931C602.042 926.86 604.21 926.412 606.254 925.606L615.167 922.359C619.811 920.909 623.818 917.912 626.521 913.867C629.224 909.822 630.461 904.973 630.025 900.128V883.445C630.025 876.626 628.47 873.737 623.616 871.542L609.896 865C607.84 864.109 607.146 862.864 607.146 860.194V851.65C607.057 850.718 607.293 849.783 607.813 849.005C608.334 848.226 609.107 847.652 610.003 847.378L611.269 846.924C611.67 846.762 612.097 846.672 612.529 846.657C613.597 846.657 614.131 847.463 614.131 849.119V863.991L629.784 858.298V841.744C629.784 833.29 626.938 829.002 621.32 829.002C619.123 829.074 616.955 829.524 614.911 830.332L606.233 833.493C601.592 834.944 597.588 837.939 594.885 841.98C592.183 846.022 590.944 850.866 591.375 855.708V870.074C591.375 876.813 592.978 879.814 597.784 881.977L611.493 888.497C613.544 889.389 614.233 890.633 614.233 893.303V904.197C614.326 905.13 614.092 906.067 613.57 906.846C613.049 907.625 612.273 908.199 611.376 908.47L609.896 909.004C609.493 909.164 609.065 909.254 608.631 909.271C608.394 909.286 608.158 909.237 607.947 909.13C607.735 909.023 607.556 908.861 607.429 908.662C607.126 908.093 606.989 907.451 607.034 906.809L607.039 889.218ZM650.975 817.531L634.847 823.406V914.723L650.975 908.849V865.679L659.162 905.896L676.204 899.712L666.057 856.953L676.684 808.175L659.963 814.268L650.975 860.461V817.531Z" fill="#FFDD17"/>
<path d="M904.545 866.372L904.983 786.157L888.807 777.853L888.342 863.531C888.342 865.32 887.862 866.201 886.895 866.249L886.441 866.212C886.089 866.145 885.747 866.03 885.426 865.87L883.701 864.984C882.739 864.497 881.947 863.728 881.434 862.779C880.92 861.83 880.709 860.747 880.828 859.675L881.298 773.997L865.127 765.709L864.625 853.673C864.586 856.738 864.88 859.798 865.501 862.799C861.576 861.897 857.57 860.845 853.592 859.675C852.786 857.576 851.468 855.712 849.757 854.253C848.047 852.794 845.997 851.787 843.797 851.323C843.212 851.219 842.619 851.165 842.024 851.163C840.874 851.153 839.732 851.37 838.665 851.801C837.599 852.233 836.628 852.871 835.808 853.678C830.948 851.825 826.083 849.812 821.367 847.697V738.602L913.598 727.762L915.36 730.197L961.619 794.546C961.773 810.097 958.086 825.444 950.885 839.228L950.938 829.642C951.013 816.292 946.132 807.267 936.028 802.081L912.353 789.938L911.942 865.427C909.555 865.843 907.061 866.158 904.524 866.361L904.545 866.372ZM841.998 750.431C840.792 750.417 839.596 750.652 838.485 751.119C837.373 751.587 836.37 752.279 835.537 753.15C834.704 754.022 834.06 755.056 833.643 756.188C833.227 757.319 833.047 758.524 833.116 759.728C833.193 762.763 834.288 765.685 836.225 768.023C838.162 770.361 840.829 771.98 843.797 772.619C844.397 772.725 845.004 772.779 845.613 772.78C846.79 772.796 847.958 772.574 849.047 772.126C850.136 771.678 851.122 771.014 851.947 770.174C853.634 768.359 854.548 765.959 854.494 763.482C854.422 760.443 853.33 757.517 851.392 755.175C849.454 752.833 846.785 751.21 843.813 750.57C843.213 750.471 842.606 750.424 841.998 750.431Z" fill="#FFDD17"/>
<path d="M931.904 818.349L928.438 816.57L928.262 849.712L931.728 851.49C933.688 852.499 934.622 851.746 934.638 849.156L934.777 823.651C934.894 822.58 934.682 821.499 934.169 820.551C933.656 819.604 932.865 818.835 931.904 818.349Z" fill="#FFDD17"/>
<path d="M886.89 866.25L886.441 866.207C886.589 866.237 886.739 866.251 886.89 866.25Z" fill="#FAAF3F"/>
<path d="M580.383 974.823L746.579 1045.61L973.881 970.695L811.37 892.418L580.383 974.823Z" fill="#FAAF3F"/>
<path d="M989.621 957.3L821.363 876.257V847.698C825.961 849.77 830.827 851.788 835.82 853.684C834.941 854.578 834.25 855.639 833.786 856.803C833.322 857.968 833.094 859.213 833.118 860.466C833.187 863.506 834.278 866.433 836.215 868.777C838.152 871.12 840.821 872.743 843.793 873.384C844.395 873.49 845.004 873.544 845.614 873.544C846.82 873.558 848.016 873.324 849.127 872.856C850.239 872.388 851.242 871.697 852.075 870.825C852.908 869.953 853.552 868.919 853.969 867.788C854.385 866.656 854.565 865.451 854.496 864.247C854.484 862.686 854.18 861.141 853.599 859.692C857.737 860.904 861.609 861.924 865.508 862.811C866.24 866.772 867.895 870.504 870.339 873.706C872.783 876.908 875.947 879.489 879.575 881.24L889.391 886.27C891.613 887.545 894.101 888.289 896.659 888.444C901.818 888.444 904.461 883.637 904.515 874.121L904.558 866.373C907.1 866.17 909.594 865.839 911.981 865.438L911.815 896.854L927.986 905.153L928.173 868.044L935.65 871.9C937.874 873.175 940.364 873.919 942.924 874.073C948.083 874.073 950.726 869.267 950.779 859.751L950.892 839.25C958.1 825.463 961.791 810.109 961.637 794.552C961.637 794.323 961.637 794.088 961.637 793.847C961.637 793.607 961.637 793.468 961.637 793.281L989.605 831.416V957.3H989.621ZM970.796 917.655C969.59 917.642 968.394 917.877 967.283 918.345C966.171 918.814 965.168 919.505 964.335 920.378C963.502 921.25 962.858 922.284 962.441 923.416C962.025 924.548 961.846 925.753 961.914 926.957C961.988 929.995 963.081 932.92 965.018 935.261C966.956 937.603 969.625 939.224 972.595 939.864C973.195 939.97 973.802 940.024 974.411 940.025C975.587 940.041 976.755 939.818 977.843 939.37C978.93 938.923 979.916 938.258 980.74 937.419C982.427 935.604 983.341 933.204 983.287 930.727C983.215 927.688 982.122 924.762 980.185 922.42C978.247 920.077 975.578 918.455 972.606 917.815C972.008 917.709 971.403 917.655 970.796 917.655ZM970.796 831.143C969.589 831.13 968.393 831.364 967.281 831.832C966.169 832.3 965.165 832.992 964.332 833.864C963.498 834.737 962.853 835.771 962.436 836.903C962.02 838.036 961.84 839.241 961.909 840.446C961.981 843.485 963.074 846.411 965.011 848.753C966.949 851.096 969.618 852.718 972.59 853.358C973.19 853.465 973.797 853.518 974.406 853.519C975.582 853.535 976.75 853.313 977.837 852.865C978.925 852.417 979.911 851.753 980.734 850.913C982.422 849.097 983.336 846.695 983.282 844.216C983.21 841.177 982.117 838.251 980.179 835.909C978.242 833.566 975.572 831.944 972.601 831.303C972.005 831.216 971.403 831.181 970.801 831.197L970.796 831.143Z" fill="#FAAF3F"/>
<path d="M802.469 743.852L772.85 754.991C770.201 772.984 764.733 790.447 756.647 806.738V854.105L775.339 847.307V863.622L740.508 876.289V834.891C733.554 845.275 725.892 855.167 717.576 864.497V868.326L736.268 861.528V877.843L701.464 890.509V881.303C699.559 883.147 697.601 884.998 695.589 886.857V892.646L684.492 896.688C665.662 912.521 645.512 926.713 624.262 939.111L802.469 875.536V743.852Z" fill="#FAAF3F"/>
<path d="M746.158 1065.15C744.886 1065.15 743.627 1064.89 742.457 1064.39L550.734 982.735C550.546 982.646 550.367 982.538 550.2 982.415C550.087 982.34 549.959 982.249 549.831 982.18C549.713 982.116 549.592 982.059 549.468 982.009C549.294 981.942 549.127 981.856 548.971 981.753C548.898 981.697 548.83 981.634 548.768 981.566C548.72 981.518 548.672 981.47 548.624 981.427C548.427 981.268 548.238 981.099 548.058 980.92L547.957 980.824C547.546 980.432 547.171 980.005 546.835 979.547C546.655 979.307 546.487 979.057 546.333 978.8C546.028 978.275 545.779 977.72 545.591 977.144L545.516 976.963C545.447 976.804 545.388 976.642 545.34 976.477C545.118 975.668 545.005 974.832 545.003 973.993L546.13 826.567C546.138 824.655 546.729 822.791 547.823 821.223C548.918 819.656 550.464 818.459 552.256 817.793L656.443 778.612C658.916 767.962 663.187 757.813 669.074 748.6C676.277 737.471 686.138 728.311 697.768 721.947L733.811 706.994L657.88 590.578C654.717 589.855 651.598 588.949 648.539 587.865C647.079 587.338 645.541 587.06 643.989 587.043C641.092 587.423 638.328 588.488 635.925 590.151C633.522 591.813 631.55 594.025 630.173 596.602C629.543 597.472 628.95 598.332 628.374 599.165C625.778 602.903 623.535 606.16 621.121 606.16C620.387 606.139 619.681 605.874 619.113 605.407C617.227 604.018 615.751 602.146 614.841 599.987C613.1 596.436 611.3 592.762 595.428 587.865C588.854 585.836 585.324 583.78 584.945 581.745C584.897 581.421 584.92 581.09 585.012 580.776C585.104 580.461 585.263 580.171 585.479 579.924C588.384 577.619 591.803 576.047 595.444 575.342C628.769 571.123 629.015 568.101 629.543 561.458C629.699 556.374 631.702 551.521 635.177 547.808C637.126 545.156 639.644 542.976 642.547 541.427C645.451 539.878 648.664 539 651.952 538.858C656.762 538.989 661.399 540.676 665.17 543.664L665.212 543.712L665.271 543.771C674.319 539.798 682.861 534.759 690.713 528.76C689.863 528.175 689.205 527.35 688.825 526.391C688.445 525.431 688.358 524.38 688.577 523.371C688.579 523.363 688.579 523.353 688.577 523.345C688.832 522.445 689.258 521.604 689.832 520.867C693.453 515.943 702.858 512.285 714.991 511.073C718.382 510.736 719.798 510.411 719.91 509.951C719.99 509.578 719.21 509.124 718.126 508.499C716.134 507.345 713.133 505.61 712.956 502.78C712.802 500.275 714.932 497.338 719.285 494.048C720.695 492.98 722.286 491.912 724.017 490.844C726.984 488.92 730.43 487.866 733.966 487.8C735.949 487.808 737.915 488.17 739.771 488.868C744.931 490.995 749.209 494.822 751.894 499.714C756.225 507.618 760.615 508.162 767.883 509.06C769.742 509.289 771.846 509.551 774.158 509.967C778.301 510.523 782.286 511.921 785.868 514.075C789.45 516.228 792.553 519.092 794.986 522.49C794.114 520.34 793.041 518.277 791.782 516.328C794.452 516.093 797.299 515.751 800.241 515.308C795.766 506.195 792.049 496.728 789.128 487.005C787.392 481.21 785.924 475.203 784.701 469.158C780.493 447.824 779.771 425.95 782.564 404.386C785.44 382.224 791.728 360.64 801.203 340.4C822.134 294.216 859.292 257.323 905.625 236.72C907.826 235.769 910.015 234.91 912.253 234.05L912.819 233.804L913.524 233.521C886.485 188.861 843.548 161.178 795.729 157.552C792.172 157.285 788.588 157.146 785.048 157.146C701.87 157.146 631.151 230.905 624.016 325.068C618.456 398.507 652.352 466.765 710.366 498.961C703.748 503.3 697.993 508.83 693.394 515.27C688.088 512.03 682.958 508.511 678.024 504.729C651.922 484.376 631.428 457.716 618.472 427.258C604.47 394.509 598.607 358.857 601.383 323.349C602.792 304.776 606.505 286.45 612.438 268.793C608.443 268.916 604.427 269.215 600.544 269.685C598.211 269.979 595.738 270.358 593.036 270.86C523.801 281.546 475.021 351.876 484.319 427.654C492.779 496.606 545.233 549.64 609.041 553.741C600.887 558.981 593.891 565.834 588.486 573.879C572.348 570.599 556.867 564.662 542.675 556.31C528.318 547.878 515.362 537.263 504.271 524.845C480.752 498.476 465.928 465.502 461.814 430.409C459.082 408.596 460.495 386.462 465.98 365.173C471.143 344.992 480.057 325.961 492.255 309.074C504.09 292.59 519.083 278.622 536.362 267.982C553.893 257.181 573.552 250.297 593.992 247.801C599.661 247.097 605.368 246.74 611.081 246.733C614.344 246.733 617.682 246.845 620.993 247.069C635.776 214.399 659.004 186.261 688.283 165.557C716.612 145.499 750.428 134.647 785.139 134.477C789.219 134.477 793.358 134.631 797.422 134.941C811.883 136.036 826.134 139.053 839.798 143.913C853.198 148.696 865.938 155.155 877.716 163.137C901.672 179.598 921.536 201.33 935.783 226.664C948.795 223.514 962.134 221.909 975.522 221.885C998.806 221.834 1021.82 226.914 1042.91 236.763C1064.3 246.918 1083.26 261.544 1098.51 279.652C1113.76 297.76 1124.95 318.929 1131.31 341.73C1145.39 390.439 1141.08 442.62 1119.22 488.366C1098.3 534.551 1061.15 571.447 1014.82 592.052C992.843 601.749 969.1 606.812 945.076 606.924C941.871 606.924 938.453 606.801 934.592 606.545C933.915 609.783 932.347 612.768 930.066 615.165C927.785 617.561 924.88 619.273 921.679 620.109C921.17 620.171 920.659 620.203 920.146 620.205C918.365 620.114 916.633 619.586 915.103 618.669C913.573 617.752 912.292 616.473 911.372 614.945C909.805 612.752 907.818 610.891 905.526 609.472C903.234 608.053 900.683 607.104 898.021 606.678C896.994 606.497 895.954 606.404 894.912 606.401C889.37 606.85 884.169 609.258 880.242 613.193C876.219 617.232 870.881 619.695 865.198 620.136C856.6 620.136 855.259 613.626 855.051 607.949C851.35 609.68 847.419 611.319 843.377 612.825L790.506 683.545L796.006 681.26C805.356 677.39 815.353 675.324 825.47 675.172C835.059 674.943 844.5 677.567 852.594 682.712C863.017 690.175 870.524 701.024 873.833 713.408L916.846 708.361C917.2 708.322 917.557 708.302 917.914 708.302C919.404 708.3 920.874 708.647 922.206 709.315C923.538 709.984 924.695 710.956 925.583 712.153L1006.7 822.727C1007.89 824.348 1008.53 826.304 1008.53 828.313V972.354C1008.54 972.421 1008.54 972.489 1008.53 972.557C1008.52 972.618 1008.51 972.681 1008.5 972.744C1008.5 972.794 1008.5 972.844 1008.5 972.893C1008.51 972.947 1008.51 973 1008.5 973.054C1008.49 973.17 1008.47 973.284 1008.44 973.395C1008.4 973.49 1008.38 973.586 1008.37 973.684C1008.29 974.244 1008.17 974.796 1007.99 975.334C1007.89 975.628 1007.77 975.927 1007.63 976.252C1007.26 977.03 1006.8 977.763 1006.26 978.437C1005.89 978.853 1005.49 979.237 1005.05 979.585L1004.83 979.777C1004.67 979.92 1004.51 980.052 1004.33 980.172L1004.23 980.263C1004.19 980.3 1004.15 980.333 1004.11 980.364C1003.85 980.512 1003.58 980.637 1003.3 980.738L1002.88 980.909C1002.76 980.962 1002.65 981.032 1002.54 981.091C1002.39 981.188 1002.22 981.27 1002.05 981.336L749.117 1064.66C748.163 1064.98 747.164 1065.15 746.158 1065.15ZM811.35 892.422L580.363 974.821L746.559 1045.62L973.861 970.699L811.35 892.422ZM802.468 743.847L772.845 755.008L564.977 833.167L563.999 960.606L624.256 939.106L802.463 875.558L802.468 743.847ZM913.593 727.773L821.368 738.613V876.262L989.626 957.311V831.41L961.653 793.281C961.653 793.463 961.653 793.655 961.653 793.815C961.653 793.975 961.653 794.296 961.653 794.525L915.382 730.203L913.593 727.773ZM751.776 723.907C733.48 731.196 715.045 739.094 714.858 739.169C705.877 744.753 699.269 753.451 696.299 763.6L795.574 726.272C792.834 717.632 788.476 713.247 782.618 713.247C781.055 713.27 779.507 713.542 778.03 714.054C774.239 715.325 769.486 717.055 763.83 719.202L761.843 721.872C761.113 722.846 760.167 723.637 759.079 724.183C757.991 724.728 756.791 725.014 755.574 725.017C754.478 725.02 753.395 724.789 752.396 724.339C752.267 724.278 752.147 724.201 752.038 724.109C751.949 724.033 751.855 723.963 751.755 723.901L751.776 723.907ZM677.731 563.07C675.45 564.138 673.063 565.206 670.644 566.168C678.366 569.82 679.883 571.449 679.883 581.953C679.991 583.477 679.693 585.003 679.02 586.375C678.346 587.746 677.321 588.915 676.048 589.761L739.638 687.267L737.031 638.591C736.815 638.665 736.587 638.703 736.358 638.704C734.965 638.704 733.571 637.102 731.552 633.209C729.404 629.272 728.129 624.919 727.814 620.445C727.344 615.751 727.029 612.649 717.555 606.374C716.116 605.428 714.973 604.096 714.258 602.529C713.543 600.963 713.284 599.227 713.512 597.52C699.79 588.064 687.704 576.431 677.731 563.081V563.07ZM781.117 627.959L769.902 684.928L818.677 619.687C816.188 620.152 813.619 620.558 811.045 620.899C808.092 625.807 800.653 628.509 790.089 628.515C787.09 628.498 784.095 628.313 781.117 627.959ZM765.421 626.533C760.921 626.497 756.446 627.197 752.172 628.605L754.906 679.871L765.421 626.533ZM780.46 581.676C781.053 581.676 781.689 581.702 782.335 581.761C794.356 582.776 795.52 587.779 796.754 593.077C796.998 595.459 797.831 597.742 799.178 599.722C800.526 601.701 802.345 603.314 804.471 604.414C807.217 605.833 809.479 608.035 810.97 610.742C809.533 605.829 807.686 601.046 805.448 596.441C819.586 594.83 833.347 590.827 846.143 584.602C843.473 583 840.466 581.596 837.304 580.084C835.798 579.363 834.26 578.632 832.765 577.884C830.177 576.836 828.049 574.897 826.766 572.418C825.482 569.938 825.129 567.081 825.769 564.363C827.12 561.201 831.398 557.42 844.119 557.42C846.945 557.435 849.769 557.595 852.578 557.901C856.562 558.318 859.66 558.521 862.052 558.521C865.62 558.521 867.569 558.067 868.189 557.095C868.755 556.214 868.189 555.017 867.564 553.634C866.432 551.183 865.15 548.401 869.545 546.265C872.497 545.036 875.62 544.267 878.805 543.984C880.222 543.799 881.649 543.703 883.078 543.696C885.834 543.512 888.594 543.999 891.121 545.115C893.649 546.231 895.867 547.943 897.588 550.104C900.15 553.809 901.63 558.155 901.86 562.654C902.256 566.615 903.682 570.403 905.996 573.642C908.31 576.881 911.432 579.457 915.051 581.115C930.592 588.314 934.389 596.495 934.838 602.091C935.214 595.867 934.491 589.625 932.702 583.651C936.782 584.015 940.963 584.186 945.134 584.186C966.024 584.088 986.669 579.685 1005.78 571.252C1047.02 552.851 1080.07 519.954 1098.67 478.802C1118.18 438.088 1122.07 391.63 1109.59 348.239C1104.12 328.509 1094.48 310.181 1081.32 294.493C1068.17 278.806 1051.79 266.123 1033.32 257.301C1015.17 248.843 995.387 244.484 975.367 244.533C972.793 244.533 970.096 244.618 967.121 244.789C938.256 245.914 910.379 255.609 887.046 272.638C858.655 291.984 836.089 318.718 821.785 349.954C802.275 390.669 798.385 437.129 810.853 480.522C818.308 506.201 832.492 529.421 851.937 547.776C843.82 549.048 836.258 552.685 830.196 558.232C823.61 551.436 817.625 544.084 812.306 536.257C801.462 538.476 790.423 539.596 779.355 539.6C775.237 539.6 771.018 539.44 766.821 539.13C764.647 538.97 762.463 538.708 760.359 538.457L760.092 538.425C758.452 539.702 759.162 541.464 760.065 543.691C761.377 545.837 761.791 548.414 761.218 550.864C760.644 553.314 759.128 555.439 756.999 556.78C754.483 558.858 751.649 560.517 748.604 561.693L749.181 572.528L750.169 591.053C753.573 592.269 757.142 592.964 760.754 593.114C762.715 593.202 764.659 592.719 766.351 591.724C768.043 590.728 769.41 589.264 770.287 587.507L770.367 587.39C771.313 585.556 772.772 584.037 774.566 583.018C776.36 581.998 778.411 581.523 780.471 581.649L780.46 581.676ZM714.067 538.783C709.44 542.981 704.557 546.886 699.445 550.478C707.042 560.188 716.004 568.747 726.051 575.892C720.882 581.272 716.882 587.663 714.302 594.663C715.085 592.919 716.392 591.461 718.041 590.492C721.956 587.92 726.53 586.529 731.216 586.487C732.227 586.489 733.238 586.544 734.244 586.653L733.411 571.081L732.957 562.611C729.518 561.758 726.306 560.166 723.545 557.945C720.785 555.725 718.542 552.928 716.972 549.752C716.211 547.961 715.733 546.062 715.557 544.123C715.436 542.258 714.925 540.439 714.057 538.783H714.067Z" fill="#262261"/>
<path d="M843.797 873.379C845.126 873.659 846.502 873.63 847.818 873.294C849.134 872.958 850.355 872.324 851.388 871.441C852.42 870.558 853.235 869.449 853.771 868.201C854.307 866.953 854.549 865.598 854.478 864.242C854.466 862.679 854.161 861.132 853.581 859.681C852.776 857.583 851.46 855.72 849.751 854.261C848.042 852.802 845.995 851.794 843.797 851.329C842.371 851.037 840.895 851.1 839.498 851.51C838.102 851.921 836.827 852.667 835.786 853.684C834.912 854.579 834.225 855.639 833.767 856.803C833.308 857.967 833.087 859.211 833.116 860.461C833.183 863.502 834.274 866.431 836.212 868.775C838.15 871.12 840.822 872.742 843.797 873.379Z" fill="#262261"/>
<path d="M843.799 772.649C845.128 772.929 846.504 772.9 847.82 772.564C849.136 772.228 850.358 771.594 851.39 770.711C852.422 769.828 853.237 768.72 853.773 767.471C854.309 766.223 854.551 764.869 854.48 763.512C854.412 760.471 853.321 757.543 851.383 755.199C849.445 752.855 846.773 751.232 843.799 750.594C842.47 750.313 841.093 750.341 839.777 750.677C838.46 751.013 837.238 751.646 836.206 752.53C835.173 753.413 834.358 754.522 833.822 755.771C833.287 757.019 833.046 758.374 833.118 759.731C833.185 762.772 834.276 765.702 836.214 768.046C838.152 770.39 840.825 772.012 843.799 772.649Z" fill="#262261"/>
<path d="M972.595 939.874C973.925 940.156 975.301 940.127 976.618 939.792C977.934 939.456 979.156 938.822 980.189 937.939C981.221 937.056 982.037 935.947 982.572 934.698C983.107 933.449 983.348 932.094 983.276 930.737C983.209 927.696 982.118 924.767 980.18 922.423C978.242 920.079 975.57 918.457 972.595 917.819C971.266 917.539 969.89 917.568 968.574 917.904C967.258 918.241 966.037 918.875 965.005 919.758C963.972 920.641 963.157 921.749 962.621 922.997C962.085 924.245 961.844 925.6 961.914 926.956C961.982 929.997 963.074 932.926 965.012 935.27C966.95 937.614 969.622 939.236 972.595 939.874Z" fill="#262261"/>
<path d="M972.596 853.386C973.926 853.668 975.302 853.639 976.619 853.303C977.936 852.967 979.158 852.333 980.191 851.449C981.224 850.565 982.039 849.456 982.574 848.206C983.109 846.957 983.35 845.601 983.277 844.244C983.208 841.204 982.116 838.276 980.178 835.933C978.24 833.591 975.569 831.969 972.596 831.331C971.266 831.051 969.89 831.08 968.573 831.416C967.257 831.753 966.035 832.387 965.003 833.271C963.97 834.155 963.155 835.264 962.619 836.513C962.084 837.761 961.843 839.117 961.915 840.474C961.985 843.513 963.077 846.44 965.015 848.783C966.953 851.126 969.623 852.747 972.596 853.386Z" fill="#262261"/>
<path d="M630.003 883.46C630.003 876.731 628.513 873.773 623.594 871.551L609.896 865.015C607.952 864.166 607.151 863.039 607.151 860.209V851.664C607.064 850.733 607.3 849.799 607.821 849.021C608.341 848.243 609.113 847.668 610.008 847.392L611.273 846.933C613.212 846.228 614.125 846.933 614.125 849.128V863.995L629.773 858.297V841.742C629.773 830.485 624.86 826.71 614.921 830.325L606.237 833.481C601.604 834.942 597.608 837.939 594.907 841.976C592.206 846.014 590.962 850.851 591.38 855.691V870.072C591.38 876.518 592.865 879.754 597.789 881.975L611.498 888.507C613.442 889.35 614.243 890.488 614.243 893.313V904.18C614.332 905.112 614.096 906.047 613.575 906.825C613.055 907.604 612.281 908.178 611.386 908.452L609.901 908.986C607.957 909.696 607.044 908.986 607.044 906.791V889.222L591.38 894.92V914.193C591.38 925.455 596.293 929.231 606.237 925.61L615.151 922.369C619.787 920.907 623.787 917.907 626.488 913.865C629.189 909.823 630.431 904.981 630.008 900.137L630.003 883.46Z" fill="#262261"/>
<path d="M650.972 865.683L659.154 905.905L676.206 899.7L666.07 856.936L676.671 808.18L659.944 814.262L650.972 860.466V817.53L634.844 823.405V914.722L650.972 908.848V865.683Z" fill="#262261"/>
<path d="M695.567 892.622V801.305L679.434 807.179V898.496L684.47 896.665L695.567 892.622Z" fill="#262261"/>
<path d="M736.244 861.53L717.552 868.328V793.293L701.445 799.167V890.485L736.244 877.818V861.53Z" fill="#262261"/>
<path d="M775.31 847.315L756.619 854.113V779.078L740.512 784.952V876.27L775.31 863.603V847.315Z" fill="#262261"/>
<path d="M879.551 881.241L889.367 886.271C899.423 891.43 904.421 887.409 904.491 874.128L904.534 866.374L904.971 786.159L888.8 777.855L888.33 863.538C888.33 865.354 887.834 866.208 886.883 866.256C886.733 866.26 886.582 866.247 886.435 866.219C886.082 866.155 885.741 866.042 885.42 865.882L883.69 864.991C882.731 864.503 881.944 863.736 881.432 862.791C880.92 861.846 880.707 860.767 880.822 859.698L881.292 774.004L865.121 765.711L864.64 853.685C864.602 856.748 864.895 859.807 865.516 862.806C866.256 866.76 867.911 870.487 870.348 873.687C872.785 876.888 875.936 879.475 879.551 881.241Z" fill="#262261"/>
<path d="M927.964 905.155L911.793 896.856L911.964 865.44L912.375 789.945L936.055 802.089C946.154 807.274 951.008 816.294 950.965 829.655L950.912 839.235L950.779 859.742C950.731 869.247 948.108 874.064 942.928 874.064C940.368 873.91 937.879 873.166 935.654 871.891L928.146 868.035L927.937 905.144L927.964 905.155ZM928.445 816.566L928.268 849.707L931.734 851.491C932.168 851.743 932.654 851.891 933.155 851.924C934.143 851.924 934.629 851.016 934.64 849.152L934.757 823.647C934.878 822.577 934.668 821.495 934.156 820.548C933.645 819.6 932.856 818.831 931.895 818.344L928.445 816.566Z" fill="#262261"/>
</g>
<defs>
<clipPath id="clip0_1200_73">
<rect width="700" height="951.624" fill="white" transform="translate(450 124)"/>
</clipPath>
</defs>
</svg>
