<svg width="51" height="51" viewBox="0 0 51 51" fill="none" xmlns="http://www.w3.org/2000/svg">
<path d="M40.9353 39.6976C37.8087 42.2432 33.8997 43.6323 29.8678 43.6306C25.1568 43.6306 20.6388 41.7592 17.3076 38.428C13.9764 35.0968 12.105 30.5788 12.105 25.8678C12.105 21.1568 13.9764 16.6388 17.3076 13.3076C20.6388 9.97643 25.1568 8.10499 29.8678 8.10499C33.8997 8.10291 37.8089 9.49209 40.9353 12.038L46.3669 7.36288C41.8485 3.26614 35.967 0.99792 29.8678 1C23.2725 1 16.9472 3.61999 12.2836 8.28361C7.61999 12.9472 5 19.2725 5 25.8678C5 32.4632 7.61999 38.7884 12.2836 43.452C16.9472 48.1156 23.2725 50.7356 29.8678 50.7356C35.9671 50.7376 41.8487 48.4692 46.3669 44.3721L40.9353 39.6976Z" fill="#262262"/>
<path d="M20.8842 38.305L26.0802 33.2241C24.7015 32.5502 23.5381 31.505 22.7211 30.2059C21.904 28.9069 21.4657 27.4056 21.4555 25.8711H14.3008C14.3101 28.3216 14.914 30.7333 16.0606 32.8991C17.2073 35.0648 18.8626 36.9199 20.8842 38.305Z" fill="#F6931D"/>
<path d="M14.3008 25.2151H21.4548C21.4645 23.6803 21.9026 22.1788 22.7198 20.8795C23.5371 19.5804 24.7009 18.5353 26.0802 17.8621L20.8835 12.7812C18.862 14.1664 17.2069 16.0214 16.0603 18.1872C14.9137 20.3529 14.3099 22.7646 14.3008 25.2151Z" fill="#61C7CF"/>
<path d="M20.8447 12.9643L26.0055 18.0171C27.1727 17.432 28.4595 17.1251 29.7651 17.1204C31.0707 17.1156 32.3598 17.4131 33.5312 17.9896L39.1684 13.264C36.5294 11.3034 33.3419 10.2199 30.0548 10.1662C26.7676 10.1124 23.5464 11.091 20.8447 12.9643Z" fill="#1C75BB"/>
<path d="M29.7971 40.9194C33.1738 40.9258 36.4617 39.8382 39.1684 37.8194L33.5299 33.0932C32.3693 33.6642 31.0932 33.9615 29.7998 33.9623C28.4828 33.9626 27.1838 33.6559 26.0061 33.0664L20.8447 38.1185C23.4717 39.9467 26.5966 40.9244 29.7971 40.9194Z" fill="#EB008B"/>
</svg>
