<svg xmlns="http://www.w3.org/2000/svg" width="27" height="36" viewBox="0 0 17 22.999999"><g fill-rule="evenodd"><path d="m0 10h1v1h-1z"/><path d="m0 11h1v1h-1z"/><path d="m0 12h1v1h-1z"/><path d="m1 10h1v1h-1z"/><g fill="#fff"><path d="m1 11h1v1h-1z"/><path d="m1 12h1v1h-1z"/></g><path d="m1 13h1v1h-1z"/><path d="m2 10h1v1h-1z"/><g fill="#fff"><path d="m2 11h1v1h-1z"/><path d="m2 12h1v1h-1z"/><path d="m2 13h1v1h-1z"/></g><path d="m2 14h1v1h-1z"/><path d="m2 15h1v1h-1z"/><path d="m3 11h1v1h-1z"/><g fill="#fff"><path d="m3 12h1v1h-1z"/><path d="m3 13h1v1h-1z"/><path d="m3 14h1v1h-1z"/><path d="m3 15h1v1h-1z"/></g><path d="m3 16h1v1h-1z"/><path d="m3 17h1v1h-1z"/><path d="m4 1h1v1h-1z"/><path d="m4 2h1v1h-1z"/><path d="m4 3h1v1h-1z"/><path d="m4 4h1v1h-1z"/><path d="m4 5h1v1h-1z"/><path d="m4 6h1v1h-1z"/><path d="m4 7h1v1h-1z"/><path d="m4 8h1v1h-1z"/><path d="m4 9h1v1h-1z"/><path d="m4 10h1v1h-1z"/><path d="m4 11h1v1h-1z"/><path d="m4 12h1v1h-1z"/><path d="m4 13h1v1h-1z"/><g fill="#fff"><path d="m4 14h1v1h-1z"/><path d="m4 15h1v1h-1z"/><path d="m4 16h1v1h-1z"/><path d="m4 17h1v1h-1z"/></g><path d="m4 18h1v1h-1z"/><path d="m4 19h1v1h-1z"/><path d="m5 0h1v1h-1z"/><g fill="#fff"><path d="m5 1h1v1h-1z"/><path d="m5 2h1v1h-1z"/><path d="m5 3h1v1h-1z"/><path d="m5 4h1v1h-1z"/><path d="m5 5h1v1h-1z"/><path d="m5 6h1v1h-1z"/><path d="m5 7h1v1h-1z"/><path d="m5 8h1v1h-1z"/><path d="m5 9h1v1h-1z"/><path d="m5 10h1v1h-1z"/><path d="m5 11h1v1h-1z"/><path d="m5 12h1v1h-1z"/><path d="m5 13h1v1h-1z"/><path d="m5 14h1v1h-1z"/><path d="m5 15h1v1h-1z"/><path d="m5 16h1v1h-1z"/><path d="m5 17h1v1h-1z"/><path d="m5 18h1v1h-1z"/><path d="m5 19h1v1h-1z"/></g><path d="m5 20h1v1h-1z"/><path d="m5 21h1v1h-1z"/><path d="m5 22h1v1h-1z"/><path d="m6 0h1v1h-1z"/><g fill="#fff"><path d="m6 1h1v1h-1z"/><path d="m6 2h1v1h-1z"/><path d="m6 3h1v1h-1z"/><path d="m6 4h1v1h-1z"/><path d="m6 5h1v1h-1z"/><path d="m6 6h1v1h-1z"/><path d="m6 7h1v1h-1z"/><path d="m6 8h1v1h-1z"/><path d="m6 9h1v1h-1z"/><path d="m6 10h1v1h-1z"/><path d="m6 11h1v1h-1z"/><path d="m6 12h1v1h-1z"/><path d="m6 13h1v1h-1z"/><path d="m6 14h1v1h-1z"/><path d="m6 15h1v1h-1z"/><path d="m6 16h1v1h-1z"/><path d="m6 17h1v1h-1z"/><path d="m6 18h1v1h-1z"/><path d="m6 19h1v1h-1z"/><path d="m6 20h1v1h-1z"/><path d="m6 21h1v1h-1z"/></g><path d="m6 22h1v1h-1z"/><path d="m7 1h1v1h-1z"/><path d="m7 2h1v1h-1z"/><path d="m7 3h1v1h-1z"/><path d="m7 4h1v1h-1z"/><path d="m7 5h1v1h-1z"/><path d="m7 6h1v1h-1z"/><path d="m7 7h1v1h-1z"/><path d="m7 8h1v1h-1z"/><path d="m7 9h1v1h-1z"/><g fill="#fff"><path d="m7 10h1v1h-1z"/><path d="m7 11h1v1h-1z"/><path d="m7 12h1v1h-1z"/><path d="m7 13h1v1h-1z"/><path d="m7 14h1v1h-1z"/><path d="m7 15h1v1h-1z"/><path d="m7 16h1v1h-1z"/><path d="m7 17h1v1h-1z"/><path d="m7 18h1v1h-1z"/><path d="m7 19h1v1h-1z"/><path d="m7 20h1v1h-1z"/><path d="m7 21h1v1h-1z"/></g><path d="m7 22h1v1h-1z"/><path d="m8 5h1v1h-1z"/><g fill="#fff"><path d="m8 6h1v1h-1z"/><path d="m8 7h1v1h-1z"/><path d="m8 8h1v1h-1z"/><path d="m8 9h1v1h-1z"/><path d="m8 10h1v1h-1z"/><path d="m8 11h1v1h-1z"/><path d="m8 12h1v1h-1z"/><path d="m8 13h1v1h-1z"/><path d="m8 14h1v1h-1z"/><path d="m8 15h1v1h-1z"/><path d="m8 16h1v1h-1z"/><path d="m8 17h1v1h-1z"/><path d="m8 18h1v1h-1z"/><path d="m8 19h1v1h-1z"/><path d="m8 20h1v1h-1z"/><path d="m8 21h1v1h-1z"/></g><path d="m8 22h1v1h-1z"/><path d="m9 5h1v1h-1z"/><g fill="#fff"><path d="m9 6h1v1h-1z"/><path d="m9 7h1v1h-1z"/><path d="m9 8h1v1h-1z"/><path d="m9 9h1v1h-1z"/><path d="m9 10h1v1h-1z"/><path d="m9 11h1v1h-1z"/><path d="m9 12h1v1h-1z"/><path d="m9 13h1v1h-1z"/><path d="m9 14h1v1h-1z"/><path d="m9 15h1v1h-1z"/><path d="m9 16h1v1h-1z"/><path d="m9 17h1v1h-1z"/><path d="m9 18h1v1h-1z"/><path d="m9 19h1v1h-1z"/><path d="m9 20h1v1h-1z"/><path d="m9 21h1v1h-1z"/></g><path d="m9 22h1v1h-1z"/><path d="m10 6h1v1h-1z"/><path d="m10 7h1v1h-1z"/><path d="m10 8h1v1h-1z"/><path d="m10 9h1v1h-1z"/><g fill="#fff"><path d="m10 10h1v1h-1z"/><path d="m10 11h1v1h-1z"/><path d="m10 12h1v1h-1z"/><path d="m10 13h1v1h-1z"/><path d="m10 14h1v1h-1z"/><path d="m10 15h1v1h-1z"/><path d="m10 16h1v1h-1z"/><path d="m10 17h1v1h-1z"/><path d="m10 18h1v1h-1z"/><path d="m10 19h1v1h-1z"/><path d="m10 20h1v1h-1z"/><path d="m10 21h1v1h-1z"/></g><path d="m10 22h1v1h-1z"/><path d="m11 6h1v1h-1z"/><g fill="#fff"><path d="m11 7h1v1h-1z"/><path d="m11 8h1v1h-1z"/><path d="m11 9h1v1h-1z"/><path d="m11 10h1v1h-1z"/><path d="m11 11h1v1h-1z"/><path d="m11 12h1v1h-1z"/><path d="m11 13h1v1h-1z"/><path d="m11 14h1v1h-1z"/><path d="m11 15h1v1h-1z"/><path d="m11 16h1v1h-1z"/><path d="m11 17h1v1h-1z"/><path d="m11 18h1v1h-1z"/><path d="m11 19h1v1h-1z"/><path d="m11 20h1v1h-1z"/><path d="m11 21h1v1h-1z"/></g><path d="m11 22h1v1h-1z"/><path d="m12 6h1v1h-1z"/><g fill="#fff"><path d="m12 7h1v1h-1z"/><path d="m12 8h1v1h-1z"/><path d="m12 9h1v1h-1z"/><path d="m12 10h1v1h-1z"/><path d="m12 11h1v1h-1z"/><path d="m12 12h1v1h-1z"/><path d="m12 13h1v1h-1z"/><path d="m12 14h1v1h-1z"/><path d="m12 15h1v1h-1z"/><path d="m12 16h1v1h-1z"/><path d="m12 17h1v1h-1z"/><path d="m12 18h1v1h-1z"/><path d="m12 19h1v1h-1z"/><path d="m12 20h1v1h-1z"/><path d="m12 21h1v1h-1z"/></g><path d="m12 22h1v1h-1z"/><path d="m13 7h1v1h-1z"/><path d="m13 8h1v1h-1z"/><path d="m13 9h1v1h-1z"/><path d="m13 10h1v1h-1z"/><g fill="#fff"><path d="m13 11h1v1h-1z"/><path d="m13 12h1v1h-1z"/><path d="m13 13h1v1h-1z"/><path d="m13 14h1v1h-1z"/><path d="m13 15h1v1h-1z"/><path d="m13 16h1v1h-1z"/><path d="m13 17h1v1h-1z"/><path d="m13 18h1v1h-1z"/><path d="m13 19h1v1h-1z"/><path d="m13 20h1v1h-1z"/><path d="m13 21h1v1h-1z"/></g><path d="m13 22h1v1h-1z"/><path d="m14 7h1v1h-1z"/><g fill="#fff"><path d="m14 8h1v1h-1z"/><path d="m14 9h1v1h-1z"/><path d="m14 10h1v1h-1z"/><path d="m14 11h1v1h-1z"/><path d="m14 12h1v1h-1z"/><path d="m14 13h1v1h-1z"/><path d="m14 14h1v1h-1z"/><path d="m14 15h1v1h-1z"/><path d="m14 16h1v1h-1z"/><path d="m14 17h1v1h-1z"/><path d="m14 18h1v1h-1z"/><path d="m14 19h1v1h-1z"/></g><path d="m14 20h1v1h-1z"/><path d="m14 21h1v1h-1z"/><path d="m14 22h1v1h-1z"/><path d="m15 8h1v1h-1z"/><g fill="#fff"><path d="m15 9h1v1h-1z"/><path d="m15 10h1v1h-1z"/><path d="m15 11h1v1h-1z"/><path d="m15 12h1v1h-1z"/><path d="m15 13h1v1h-1z"/><path d="m15 14h1v1h-1z"/><path d="m15 15h1v1h-1z"/><path d="m15 16h1v1h-1z"/></g><path d="m15 17h1v1h-1z"/><path d="m15 18h1v1h-1z"/><path d="m15 19h1v1h-1z"/><path d="m16 9h1v1h-1z"/><path d="m16 10h1v1h-1z"/><path d="m16 11h1v1h-1z"/><path d="m16 12h1v1h-1z"/><path d="m16 13h1v1h-1z"/><path d="m16 14h1v1h-1z"/><path d="m16 15h1v1h-1z"/><path d="m16 16h1v1h-1z"/></g></svg>