<svg width="60" height="60" viewBox="0 0 60 60" fill="none" xmlns="http://www.w3.org/2000/svg">
<path opacity="0.2" d="M39.375 32.8125C39.375 34.6667 38.8252 36.4793 37.795 38.021C36.7649 39.5627 35.3007 40.7643 33.5877 41.4739C31.8746 42.1834 29.9896 42.3691 28.171 42.0074C26.3525 41.6456 24.682 40.7527 23.3709 39.4416C22.0598 38.1305 21.1669 36.46 20.8051 34.6415C20.4434 32.8229 20.6291 30.9379 21.3386 29.2248C22.0482 27.5118 23.2498 26.0476 24.7915 25.0175C26.3332 23.9873 28.1458 23.4375 30 23.4375C32.4864 23.4375 34.871 24.4252 36.6291 26.1834C38.3873 27.9415 39.375 30.3261 39.375 32.8125ZM14.0625 12.1875C12.5791 12.1875 11.1291 12.6274 9.89573 13.4515C8.66236 14.2756 7.70106 15.4469 7.13341 16.8174C6.56575 18.1878 6.41722 19.6958 6.70661 21.1507C6.996 22.6055 7.71031 23.9419 8.7592 24.9908C9.8081 26.0397 11.1445 26.754 12.5993 27.0434C14.0542 27.3328 15.5622 27.1843 16.9326 26.6166C18.3031 26.0489 19.4744 25.0876 20.2985 23.8543C21.1226 22.6209 21.5625 21.1709 21.5625 19.6875C21.5625 17.6984 20.7723 15.7907 19.3658 14.3842C17.9593 12.9777 16.0516 12.1875 14.0625 12.1875ZM45.9375 12.1875C44.4541 12.1875 43.0041 12.6274 41.7707 13.4515C40.5374 14.2756 39.5761 15.4469 39.0084 16.8174C38.4408 18.1878 38.2922 19.6958 38.5816 21.1507C38.871 22.6055 39.5853 23.9419 40.6342 24.9908C41.6831 26.0397 43.0195 26.754 44.4743 27.0434C45.9292 27.3328 47.4372 27.1843 48.8076 26.6166C50.1781 26.0489 51.3494 25.0876 52.1735 23.8543C52.9976 22.6209 53.4375 21.1709 53.4375 19.6875C53.4375 17.6984 52.6473 15.7907 51.2408 14.3842C49.8343 12.9777 47.9266 12.1875 45.9375 12.1875Z" fill="#9BC896"/>
<path d="M58.3125 34.3127C57.9905 34.5608 57.594 34.693 57.1875 34.6877C56.8964 34.6877 56.6093 34.6199 56.349 34.4897C56.0886 34.3596 55.8622 34.1706 55.6875 33.9377C54.5574 32.4186 53.0864 31.1861 51.3929 30.3394C49.6995 29.4926 47.8308 29.0553 45.9375 29.0627C45.4402 29.0627 44.9633 28.8651 44.6117 28.5135C44.26 28.1619 44.0625 27.685 44.0625 27.1877C44.0625 26.6904 44.26 26.2135 44.6117 25.8619C44.9633 25.5102 45.4402 25.3127 45.9375 25.3127C47.0046 25.3115 48.0494 25.0069 48.9499 24.4343C49.8504 23.8616 50.5694 23.0447 51.023 22.0788C51.4766 21.1129 51.6461 20.0378 51.5117 18.9792C51.3773 17.9206 50.9445 16.922 50.2639 16.1001C49.5833 15.2782 48.683 14.6669 47.668 14.3374C46.653 14.008 45.5652 13.9741 44.5317 14.2397C43.4981 14.5052 42.5614 15.0593 41.8309 15.8372C41.1005 16.6151 40.6063 17.5848 40.4063 18.633C40.3699 18.8836 40.2831 19.1243 40.1511 19.3405C40.0192 19.5567 39.8448 19.7439 39.6385 19.8908C39.4322 20.0378 39.1983 20.1414 38.9508 20.1954C38.7034 20.2495 38.4476 20.2529 38.1988 20.2053C37.95 20.1578 37.7135 20.0603 37.5034 19.9189C37.2933 19.7774 37.1141 19.5948 36.9765 19.3822C36.8389 19.1695 36.7458 18.9312 36.7029 18.6816C36.6599 18.432 36.668 18.1763 36.7266 17.9299C37.0047 16.4717 37.6252 15.1003 38.5369 13.9288C39.4487 12.7572 40.6256 11.8189 41.9708 11.1911C43.3161 10.5633 44.7912 10.264 46.2747 10.3177C47.7582 10.3714 49.2078 10.7766 50.5041 11.5001C51.8005 12.2235 52.9064 13.2444 53.7311 14.4788C54.5557 15.7133 55.0754 17.1259 55.2474 18.6004C55.4194 20.0749 55.2387 21.5692 54.7204 22.9602C54.202 24.3513 53.3606 25.5994 52.2656 26.6018C54.814 27.7067 57.0282 29.4603 58.6875 31.6877C58.8352 31.8847 58.9427 32.1088 59.0038 32.3474C59.065 32.5859 59.0785 32.8341 59.0437 33.0779C59.0088 33.3216 58.9263 33.5561 58.8009 33.768C58.6754 33.9799 58.5095 34.165 58.3125 34.3127ZM45.1875 49.8049C45.3991 50.2533 45.4269 50.7668 45.2648 51.2355C45.1028 51.7041 44.7638 52.0907 44.3203 52.3127C44.0617 52.4279 43.783 52.4916 43.5 52.5002C43.1487 52.4978 42.8049 52.3979 42.507 52.2117C42.2091 52.0255 41.9686 51.7602 41.8125 51.4455C40.7313 49.2338 39.0509 47.3701 36.9626 46.0665C34.8742 44.7628 32.4618 44.0717 30 44.0717C27.5382 44.0717 25.1258 44.7628 23.0375 46.0665C20.9491 47.3701 19.2687 49.2338 18.1875 51.4455C18.0799 51.6672 17.9297 51.8656 17.7454 52.0292C17.5611 52.1928 17.3463 52.3185 17.1134 52.399C16.8805 52.4795 16.6339 52.5134 16.3879 52.4986C16.1419 52.4838 15.9013 52.4206 15.6797 52.3127C15.2363 52.0907 14.8973 51.7041 14.7352 51.2355C14.5731 50.7668 14.6009 50.2533 14.8125 49.8049C16.555 46.2169 19.5106 43.3609 23.1563 41.7424C21.2902 40.3121 19.9192 38.3331 19.2357 36.0835C18.5523 33.8339 18.5909 31.4267 19.3461 29.2001C20.1012 26.9736 21.535 25.0396 23.4459 23.6698C25.3568 22.3001 27.6489 21.5635 30 21.5635C32.3511 21.5635 34.6432 22.3001 36.5541 23.6698C38.465 25.0396 39.8988 26.9736 40.6539 29.2001C41.4091 31.4267 41.4477 33.8339 40.7643 36.0835C40.0809 38.3331 38.7098 40.3121 36.8438 41.7424C40.4894 43.3609 43.445 46.2169 45.1875 49.8049ZM30 40.3127C31.4834 40.3127 32.9334 39.8728 34.1668 39.0487C35.4002 38.2246 36.3614 37.0533 36.9291 35.6828C37.4968 34.3124 37.6453 32.8044 37.3559 31.3495C37.0665 29.8947 36.3522 28.5583 35.3033 27.5094C34.2544 26.4605 32.918 25.7462 31.4632 25.4568C30.0083 25.1674 28.5003 25.3159 27.1299 25.8836C25.7594 26.4512 24.5881 27.4125 23.764 28.6459C22.9399 29.8793 22.5 31.3293 22.5 32.8127C22.5062 34.7999 23.2983 36.704 24.7035 38.1092C26.1087 39.5143 28.0128 40.3065 30 40.3127ZM15.9375 27.1877C15.9375 26.6904 15.74 26.2135 15.3883 25.8619C15.0367 25.5102 14.5598 25.3127 14.0625 25.3127C12.9954 25.3115 11.9506 25.0069 11.0501 24.4343C10.1497 23.8616 9.43064 23.0447 8.97702 22.0788C8.52341 21.1129 8.35391 20.0378 8.48832 18.9792C8.62272 17.9206 9.05548 16.922 9.73608 16.1001C10.4167 15.2782 11.317 14.6669 12.332 14.3374C13.347 14.008 14.4348 13.9741 15.4684 14.2397C16.5019 14.5052 17.4386 15.0593 18.1691 15.8372C18.8995 16.6151 19.3937 17.5848 19.5938 18.633C19.6301 18.8836 19.7169 19.1243 19.8489 19.3405C19.9808 19.5567 20.1552 19.7439 20.3615 19.8908C20.5678 20.0378 20.8017 20.1414 21.0492 20.1954C21.2966 20.2495 21.5524 20.2529 21.8012 20.2053C22.05 20.1578 22.2866 20.0603 22.4966 19.9189C22.7067 19.7774 22.886 19.5948 23.0235 19.3822C23.1611 19.1695 23.2542 18.9312 23.2972 18.6816C23.3401 18.432 23.332 18.1763 23.2734 17.9299C22.9953 16.4717 22.3748 15.1003 21.4631 13.9288C20.5513 12.7572 19.3744 11.8189 18.0292 11.1911C16.684 10.5633 15.2089 10.264 13.7253 10.3177C12.2418 10.3714 10.7922 10.7766 9.49587 11.5001C8.19956 12.2235 7.09357 13.2444 6.26894 14.4788C5.44431 15.7133 4.92461 17.1259 4.75262 18.6004C4.58063 20.0749 4.76127 21.5692 5.27965 22.9602C5.79804 24.3513 6.63937 25.5994 7.73438 26.6018C5.18605 27.7067 2.97185 29.4603 1.31251 31.6877C1.01414 32.0855 0.886026 32.5856 0.956352 33.0779C1.02668 33.5701 1.28968 34.0143 1.68751 34.3127C2.00956 34.5608 2.40597 34.693 2.81251 34.6877C3.10359 34.6877 3.39068 34.6199 3.65103 34.4897C3.91139 34.3596 4.13786 34.1706 4.31251 33.9377C5.44263 32.4186 6.91363 31.1861 8.6071 30.3394C10.3006 29.4926 12.1692 29.0553 14.0625 29.0627C14.5598 29.0627 15.0367 28.8651 15.3883 28.5135C15.74 28.1619 15.9375 27.685 15.9375 27.1877Z" fill="#9BC896"/>
</svg>
