<svg width="60" height="60" viewBox="0 0 60 60" fill="none" xmlns="http://www.w3.org/2000/svg">
<g opacity="0.2">
<path d="M30 37.5C34.1421 37.5 37.5 34.1421 37.5 30C37.5 25.8579 34.1421 22.5 30 22.5C25.8579 22.5 22.5 25.8579 22.5 30C22.5 34.1421 25.8579 37.5 30 37.5Z" fill="#9BC896"/>
<path d="M54.375 15H41.25L56.25 28.125V16.875C56.25 16.3777 56.0525 15.9008 55.7008 15.5492C55.3492 15.1975 54.8723 15 54.375 15ZM54.375 45C54.8723 45 55.3492 44.8025 55.7008 44.4508C56.0525 44.0992 56.25 43.6223 56.25 43.125V31.875L41.25 45H54.375ZM3.75 16.875V28.125L18.75 15H5.625C5.12772 15 4.65081 15.1975 4.29917 15.5492C3.94754 15.9008 3.75 16.3777 3.75 16.875ZM3.75 43.125C3.75 43.6223 3.94754 44.0992 4.29917 44.4508C4.65081 44.8025 5.12772 45 5.625 45H18.75L3.75 31.875V43.125Z" fill="#9BC896"/>
</g>
<path d="M54.375 13.125H5.625C4.63044 13.125 3.67661 13.5201 2.97335 14.2233C2.27009 14.9266 1.875 15.8804 1.875 16.875V43.125C1.875 44.1196 2.27009 45.0734 2.97335 45.7766C3.67661 46.4799 4.63044 46.875 5.625 46.875H54.375C55.3696 46.875 56.3234 46.4799 57.0266 45.7766C57.7299 45.0734 58.125 44.1196 58.125 43.125V16.875C58.125 15.8804 57.7299 14.9266 57.0266 14.2233C56.3234 13.5201 55.3696 13.125 54.375 13.125ZM19.4531 43.125L5.625 31.0312V28.9687L19.4531 16.875H40.5469L54.375 28.9687V31.0312L40.5469 43.125H19.4531ZM54.375 24L46.2422 16.875H54.375V24ZM13.7578 16.875L5.625 24V16.875H13.7578ZM5.625 36L13.7578 43.125H5.625V36ZM54.375 43.125H46.2422L54.375 36V43.125ZM30 20.625C28.1458 20.625 26.3332 21.1748 24.7915 22.205C23.2498 23.2351 22.0482 24.6993 21.3386 26.4123C20.6291 28.1254 20.4434 30.0104 20.8051 31.829C21.1669 33.6475 22.0598 35.318 23.3709 36.6291C24.682 37.9402 26.3525 38.8331 28.171 39.1949C29.9896 39.5566 31.8746 39.3709 33.5877 38.6614C35.3007 37.9518 36.7649 36.7502 37.795 35.2085C38.8252 33.6668 39.375 31.8542 39.375 30C39.375 27.5136 38.3873 25.129 36.6291 23.3709C34.871 21.6127 32.4864 20.625 30 20.625ZM30 35.625C28.8875 35.625 27.7999 35.2951 26.8749 34.677C25.9499 34.0589 25.2289 33.1804 24.8032 32.1526C24.3774 31.1248 24.266 29.9938 24.4831 28.9026C24.7001 27.8115 25.2359 26.8092 26.0225 26.0225C26.8092 25.2359 27.8115 24.7001 28.9026 24.4831C29.9938 24.266 31.1248 24.3774 32.1526 24.8032C33.1804 25.2289 34.0589 25.9499 34.677 26.8749C35.2951 27.7999 35.625 28.8875 35.625 30C35.6188 31.4899 35.0242 32.9171 33.9707 33.9707C32.9171 35.0242 31.4899 35.6188 30 35.625Z" fill="#9BC896"/>
</svg>
