<svg width="61" height="60" viewBox="0 0 61 60" fill="none" xmlns="http://www.w3.org/2000/svg">
<path opacity="0.2" d="M47.542 35.8358L38.917 44.4608C38.6819 44.6806 38.3971 44.8402 38.0869 44.926C37.7767 45.0117 37.4503 45.021 37.1357 44.953L23.542 41.5546C23.2937 41.4854 23.0623 41.3657 22.8623 41.203L10.042 31.1952L17.6826 16.828L29.7061 13.3124C30.1333 13.1899 30.5901 13.2231 30.9951 13.4061L39.1045 17.0858H34.2529C34.0095 17.085 33.7682 17.1321 33.543 17.2246C33.3178 17.3171 33.113 17.4532 32.9404 17.6249L23.7529 26.789C23.5653 26.9815 23.4208 27.2118 23.3288 27.4644C23.2369 27.717 23.1997 27.9863 23.2196 28.2544C23.2396 28.5225 23.3162 28.7834 23.4445 29.0196C23.5728 29.2559 23.7498 29.4622 23.9639 29.6249L25.2295 30.5858C26.5292 31.5559 28.1077 32.08 29.7295 32.08C31.3513 32.08 32.9298 31.5559 34.2295 30.5858L37.2295 28.3358L47.542 35.8358Z" fill="#9BC896"/>
<path d="M59.565 25.1252L53.7994 14.0861C53.3441 13.2171 52.5665 12.5611 51.6333 12.2588C50.7 11.9565 49.6855 12.0319 48.8072 12.4689L43.3462 15.2111H39.5025L31.7681 11.6955C30.9552 11.341 30.0456 11.2748 29.19 11.508L17.7759 14.8361L12.5259 12.2111C11.6438 11.782 10.6292 11.7133 9.69731 12.0196C8.76539 12.3259 7.98937 12.983 7.53373 13.8517L1.76811 24.8908C1.53629 25.3303 1.39413 25.8114 1.34987 26.3063C1.30561 26.8012 1.36014 27.3 1.51029 27.7736C1.8279 28.7295 2.51021 29.5213 3.40873 29.9767L9.03373 32.7892L21.69 42.6798C22.1027 43.0076 22.583 43.2398 23.0962 43.3595L36.69 46.758C36.981 46.833 37.2801 46.8724 37.5806 46.8752C38.5801 46.8671 39.5377 46.4723 40.2525 45.7736L48.8775 37.1486H48.9009C48.9009 37.1252 48.9244 37.1252 48.9244 37.1017H48.9712L52.4634 32.9533L57.9244 30.2111C58.3708 29.9936 58.7689 29.6886 59.095 29.3141C59.4212 28.9397 59.6687 28.5034 59.8228 28.0314C59.9736 27.5539 60.0284 27.0513 59.9842 26.5525C59.9399 26.0537 59.7975 25.5686 59.565 25.1252ZM47.2369 33.2814L38.3306 26.8127C38.0057 26.5781 37.6142 26.4538 37.2135 26.4581C36.8128 26.4623 36.424 26.5948 36.104 26.8361L33.104 29.0861C32.1259 29.8057 30.9434 30.1938 29.729 30.1938C28.5147 30.1938 27.3322 29.8057 26.354 29.0861L25.0884 28.1252L34.2525 18.9611H42.6665L49.0415 31.1955L47.2369 33.2814ZM10.8619 15.5861L14.9869 17.6486L9.22123 28.6877L5.09623 26.6252L10.8619 15.5861ZM37.5806 43.1252L24.0103 39.7267L12.4322 30.6798L18.8072 18.4455L30.2212 15.1173L32.0259 15.9377L31.604 16.2892L22.44 25.4767C22.0568 25.8545 21.76 26.3107 21.57 26.814C21.3799 27.3174 21.3011 27.8559 21.339 28.3927C21.3768 28.9294 21.5304 29.4515 21.7893 29.9232C22.0481 30.3949 22.406 30.8049 22.8384 31.1252L24.104 32.0861C25.7298 33.296 27.7024 33.9495 29.729 33.9495C31.7556 33.9495 33.7282 33.296 35.354 32.0861L37.2525 30.6564L44.6587 36.047L37.5806 43.1252ZM56.2369 26.8595L52.1119 28.9455L46.3462 17.9064L50.4712 15.8205L56.2369 26.8595ZM28.7447 50.3439C28.641 50.7508 28.4053 51.1119 28.0745 51.3706C27.7437 51.6293 27.3365 51.771 26.9165 51.7736C26.7654 51.7731 26.6152 51.7494 26.4712 51.7033L19.3931 49.9455C18.819 49.8005 18.2883 49.5191 17.8462 49.1252L12.5728 44.5314C12.3881 44.3714 12.2368 44.1765 12.1274 43.958C12.0181 43.7394 11.9528 43.5015 11.9354 43.2577C11.918 43.014 11.9487 42.7692 12.0259 42.5373C12.1031 42.3055 12.2252 42.0911 12.3853 41.9064C12.5453 41.7217 12.7402 41.5704 12.9587 41.461C13.1773 41.3517 13.4152 41.2864 13.659 41.269C13.9027 41.2516 14.1475 41.2824 14.3794 41.3596C14.6112 41.4367 14.8256 41.5589 15.0103 41.7189L20.3072 46.3127L27.3619 48.0705C27.8443 48.1925 28.2596 48.4992 28.5182 48.9244C28.7769 49.3496 28.8582 49.8593 28.7447 50.3439Z" fill="#9BC896"/>
</svg>
