<svg width="60" height="60" viewBox="0 0 60 60" fill="none" xmlns="http://www.w3.org/2000/svg">
<path opacity="0.2" d="M46.875 13.125V26.25C46.8751 28.476 46.4347 30.6799 45.5793 32.735C44.724 34.79 43.4705 36.6555 41.8911 38.224C40.3116 39.7926 38.4375 41.0331 36.3766 41.8743C34.3157 42.7154 32.1087 43.1405 29.8828 43.125C20.5781 43.0547 13.125 35.3437 13.125 26.0391V13.125C13.125 12.6277 13.3225 12.1508 13.6742 11.7992C14.0258 11.4475 14.5027 11.25 15 11.25H45C45.4973 11.25 45.9742 11.4475 46.3258 11.7992C46.6775 12.1508 46.875 12.6277 46.875 13.125Z" fill="#9BC896"/>
<path d="M54.375 15H48.75V13.125C48.75 12.1304 48.3549 11.1766 47.6517 10.4733C46.9484 9.77009 45.9946 9.375 45 9.375H15C14.0054 9.375 13.0516 9.77009 12.3483 10.4733C11.6451 11.1766 11.25 12.1304 11.25 13.125V15H5.60156C4.607 15 3.65317 15.3951 2.94991 16.0984C2.24665 16.8016 1.85156 17.7554 1.85156 18.75V22.5C1.85156 24.9864 2.83928 27.371 4.59744 29.1291C6.35559 30.8873 8.74016 31.875 11.2266 31.875H12.1641C14.4375 38.8828 20.6484 44.1328 28.125 44.9063V50.625H22.5C22.0027 50.625 21.5258 50.8225 21.1742 51.1742C20.8225 51.5258 20.625 52.0027 20.625 52.5C20.625 52.9973 20.8225 53.4742 21.1742 53.8258C21.5258 54.1775 22.0027 54.375 22.5 54.375H37.5C37.9973 54.375 38.4742 54.1775 38.8258 53.8258C39.1775 53.4742 39.375 52.9973 39.375 52.5C39.375 52.0027 39.1775 51.5258 38.8258 51.1742C38.4742 50.8225 37.9973 50.625 37.5 50.625H31.875V44.9063C35.5285 44.5475 38.9953 43.1201 41.8423 40.8025C44.6893 38.4849 46.7903 35.3797 47.8828 31.875H48.75C51.2364 31.875 53.621 30.8873 55.3791 29.1291C57.1373 27.371 58.125 24.9864 58.125 22.5V18.75C58.125 17.7554 57.7299 16.8016 57.0267 16.0984C56.3234 15.3951 55.3696 15 54.375 15ZM11.2266 28.125C9.73472 28.125 8.30398 27.5324 7.24909 26.4775C6.19419 25.4226 5.60156 23.9918 5.60156 22.5V18.75H11.25V26.0391C11.2534 26.7359 11.2925 27.4322 11.3672 28.125H11.2266ZM40.5703 36.8906C39.182 38.2772 37.5337 39.376 35.7198 40.1241C33.9059 40.8722 31.9621 41.2548 30 41.25H29.8828C21.6797 41.1797 15 34.3594 15 26.0391V13.125H45V26.25C45.0075 28.2292 44.6196 30.19 43.8589 32.0173C43.0982 33.8445 41.9801 35.5014 40.5703 36.8906ZM54.375 22.5C54.3688 23.9899 53.7742 25.4171 52.7207 26.4707C51.6671 27.5242 50.2399 28.1188 48.75 28.125H48.6563C48.7231 27.5023 48.7544 26.8763 48.75 26.25V18.75H54.375V22.5Z" fill="#9BC896"/>
</svg>
